<?xml version="1.0" standalone="no"?><!DOCTYPE svg PUBLIC "-//W3C//DTD SVG 1.1//EN" "http://www.w3.org/Graphics/SVG/1.1/DTD/svg11.dtd"><svg t="1720319948565" class="icon" viewBox="0 0 1024 1024" version="1.1" xmlns="http://www.w3.org/2000/svg" p-id="9085" xmlns:xlink="http://www.w3.org/1999/xlink" width="22" height="22"><path d="M687.37 619.42c56.13-103.82 67.41-207.34 20.23-282.87-88.88-142.32-351.66-131.35-586.93 24.5L428.9 885.6z" fill="#FFD192" p-id="9086"></path><path d="M468.66 853a120 120 0 0 1-26.08 23.5c-86.08 57-227.93-12.11-316.82-154.44s-91.17-303.93-5.08-361 227.93 12.11 316.82 154.43c35.23 56.4 56.85 115.83 64.77 170.59" fill="#FFE9D1" p-id="9087"></path><path d="M373.13 914.82a187.68 187.68 0 0 1-39.79-4.43c-80.83-17.54-164.25-84.32-223.16-178.64-44.75-71.64-69.94-150.46-70.95-221.94-1.05-74.65 24.27-132.91 71.3-164.07 33.12-21.94 74.4-28.38 119.39-18.61 80.83 17.54 164.25 84.32 223.16 178.64 35.48 56.81 58.78 118.25 67.37 177.69a18.37 18.37 0 1 1-36.37 5.26c-7.87-54.43-29.36-111-62.16-163.48-26.9-43.06-60.09-80.91-96-109.45-34.21-27.19-70.1-45.43-103.78-52.74-35.07-7.61-66.65-3-91.31 13.34C94.58 400.38 75.1 447.58 76 509.29c0.91 64.87 24.13 137 65.37 203 26.9 43.06 60.09 80.91 96 109.45 34.21 27.19 70.1 45.43 103.78 52.74 35.07 7.61 66.65 3 91.31-13.34a101.94 101.94 0 0 0 22.09-19.92 18.37 18.37 0 1 1 28.27 23.47 138.66 138.66 0 0 1-30.07 27.08c-23.09 15.29-50.13 23.05-79.62 23.05z" fill="#C49F86" p-id="9088"></path><path d="M687.36 637.79a18.38 18.38 0 0 1-16.15-27.11c27.27-50.44 43-99.16 46.71-144.8 3.74-45.86-5-86.1-25.89-119.6-26.29-42.08-71.25-71.07-130-83.83-57.9-12.57-127.5-9.27-201.28 9.53-76.88 19.59-156.38 55.69-229.89 104.39a18.37 18.37 0 0 1-20.29-30.63c76.91-51 160.29-88.77 241.12-109.37 79.27-20.2 154.7-23.59 218.14-9.83 68.7 14.91 121.74 49.58 153.4 100.27 25.2 40.35 35.75 88.14 31.35 142-4.14 50.75-21.3 104.34-51 159.29a18.37 18.37 0 0 1-16.22 9.69z" fill="#C49F86" p-id="9089"></path><path d="M343.45 583c40.43 64.73 46.56 134.85 13.69 156.62s-92.28-13-132.71-77.78S177.87 527 210.74 505.26 303 518.31 343.45 583z" fill="#FFD192" p-id="9090"></path><path d="M334.34 764.51a77.75 77.75 0 0 1-16.49-1.84c-37.19-8.07-79-43-109-91.06-21.06-33.72-34.22-70.14-37.05-102.55-3.2-36.6 7-64.7 28.79-79.12 13.71-9.08 30.81-11.74 49.44-7.7 37.19 8.07 79 43 109 91.06 21.06 33.72 34.22 70.14 37.05 102.55 3.2 36.6-7 64.7-28.79 79.12a58.81 58.81 0 0 1-32.95 9.54z m-100.8-247.37a22.45 22.45 0 0 0-12.65 3.44c-21.05 13.95-17.35 73.18 19.13 131.57 24.59 39.38 58.2 68.66 85.62 74.62 8.85 1.92 16 1.1 21.36-2.42 21.05-13.95 17.35-73.18-19.13-131.57-24.59-39.38-58.2-68.66-85.62-74.62a41.19 41.19 0 0 0-8.71-1.02z" fill="#C49F86" p-id="9091"></path><path d="M495.09 485a18.37 18.37 0 0 1-15.34-28.45l73.12-111.4a18.37 18.37 0 1 1 30.72 20.16l-73.12 111.4a18.36 18.36 0 0 1-15.38 8.29zM555.38 533.13a18.37 18.37 0 0 1-15.48-28.24l70.45-110.65a18.37 18.37 0 1 1 31 19.73l-70.46 110.65a18.36 18.36 0 0 1-15.51 8.51z" fill="#FFAA99" p-id="9092"></path><path d="M605.93 533.42a18.29 18.29 0 0 1-11.45-4l-123.8-98.79a18.37 18.37 0 1 1 22.92-28.73l123.8 98.79a18.37 18.37 0 0 1-11.47 32.73zM643.92 466.62a18.29 18.29 0 0 1-10.85-3.56l-120-87.93a18.37 18.37 0 0 1 21.72-29.63l120 87.93a18.37 18.37 0 0 1-10.88 33.19zM392.3 375.91a28.27 28.27 0 0 1-26.83-20c-4.62-14.89 3.53-30.7 18.16-35.23a27.68 27.68 0 0 1 21.63 2.32 28.41 28.41 0 0 1 13.27 16.46c4.62 14.89-3.53 30.7-18.16 35.23a27.24 27.24 0 0 1-8.07 1.22z" fill="#FFAA99" p-id="9093"></path><path d="M893.75 210a94.69 94.69 0 0 0-12.12-71.19c-26.47-42.38-80.22-55.33-120.05-28.94s-50.67 82.14-24.21 124.51a94.85 94.85 0 0 0 6.62 9.26l-69.24 45.87 57.94 92.76 69.24-45.87a95.79 95.79 0 0 0 5.44 10c26.47 42.38 80.22 55.33 120.05 28.94s50.67-82.14 24.21-124.51c-13.82-22.02-35.07-36.1-57.88-40.83z" fill="#FFE9D1" p-id="9094"></path><path d="M882.2 407.5a102.81 102.81 0 0 1-21.81-2.36A107 107 0 0 1 796 362.45l-53.12 35.19a18.37 18.37 0 0 1-25.73-5.58l-57.94-92.76a18.37 18.37 0 0 1 5.44-25l53.89-35.7c-27.34-49.91-13.31-113.31 32.93-143.94a100.15 100.15 0 0 1 77.18-14.39c28.39 6.16 52.75 23.53 68.6 48.92a112.45 112.45 0 0 1 17 67.89 109.85 109.85 0 0 1 53 44.18c31.65 50.67 18.35 117.76-29.64 149.56a99.84 99.84 0 0 1-55.41 16.68z m-80.28-89.42a18.37 18.37 0 0 1 16.63 10.56 76.8 76.8 0 0 0 4.39 8.12c10.56 16.9 26.62 28.44 45.23 32.47a63.7 63.7 0 0 0 49.09-9.11c31.55-20.9 40-65.52 18.77-99.46-10.71-17.15-27-28.73-46-32.61a18.37 18.37 0 0 1-14.2-22.05 76.82 76.82 0 0 0-9.83-57.41c-10.56-16.9-26.62-28.43-45.23-32.47a63.69 63.69 0 0 0-49.09 9.11c-31.55 20.9-40 65.52-18.77 99.46a75.9 75.9 0 0 0 5.34 7.47 18.37 18.37 0 0 1-4.12 26.84l-54.33 36 38.47 61.59 53.5-35.45a18.37 18.37 0 0 1 10.16-3.06z" fill="#C49F86" p-id="9095"></path><path d="M730.55 674.9a97.66 97.66 0 0 0-188.27 2.1 97.63 97.63 0 1 0 78.38 157.36 97.66 97.66 0 0 0 180.15 5.53M703.55 742.3a97.64 97.64 0 1 1 97.64 97.64" fill="#B6DFE1" p-id="9096"></path><path d="M711.88 915.59a116.09 116.09 0 0 1-95.74-50.47 116 116 0 1 1-87.46-205.52 116 116 0 0 1 219.53 10.23A18.37 18.37 0 0 1 712.9 680a79.29 79.29 0 0 0-152.9 1.72 18.37 18.37 0 0 1-17.55 13.7 79.26 79.26 0 1 0 63.64 127.74 18.37 18.37 0 0 1 31.68 4.7 79.29 79.29 0 0 0 146.26 4.49 18.37 18.37 0 1 1 33.45 15.21 116.31 116.31 0 0 1-105.6 68.03z" fill="#C49F86" p-id="9097"></path><path d="M801.19 858.31a18.37 18.37 0 0 1 0-36.74 79.27 79.27 0 1 0-79.27-79.27 18.37 18.37 0 1 1-36.74 0 116 116 0 1 1 116 116z" fill="#C49F86" p-id="9098"></path></svg>