<?xml version="1.0" standalone="no"?><!DOCTYPE svg PUBLIC "-//W3C//DTD SVG 1.1//EN" "http://www.w3.org/Graphics/SVG/1.1/DTD/svg11.dtd"><svg t="1720320155900" class="icon" viewBox="0 0 1024 1024" version="1.1" xmlns="http://www.w3.org/2000/svg" p-id="12251" xmlns:xlink="http://www.w3.org/1999/xlink" width="22" height="22"><path d="M842.6496 847.2576c-15.36 32.4608-43.2128 69.4272-77.6192 79.4624-100.2496 29.3888-105.8816-0.4096-249.2416-0.4096-81.1008 0-133.5296 6.8608-165.376 13.5168-62.8736 13.2096-125.6448-24.1664-142.6432-86.1184-21.2992-77.6192 4.096-175.8208 14.0288-209.1008 2.2528-7.4752 1.2288-15.6672-2.8672-22.3232-36.6592-60.7232-53.5552-84.3776-60.6208-114.9952-10.8544-47.616 35.6352-88.2688 81.3056-71.0656 0.2048 0.1024 0.3072 0.1024 0.512 0.2048 0.4096 0.2048 0.8192 0.3072 1.2288 0.4096 13.9264 4.608 28.8768-23.4496 33.5872-37.376l30.5152-91.7504c6.9632-25.3952 13.9264-51.4048 25.7024-75.0592 15.6672-31.5392 45.568-44.7488 73.3184-64.2048 28.9792-20.2752 56.9344-42.0864 83.6608-65.3312 10.9568-9.5232 20.6848-15.4624 29.4912-18.6368 50.4832-18.1248 71.4752 54.6816 125.8496 70.656 67.3792 19.8656 113.9712 94.5152 146.0224 183.3984 8.704 24.2688 34.816 37.376 59.5968 30.0032 0.2048-0.1024 0.4096-0.1024 0.6144-0.2048 26.8288-7.7824 51.5072 5.2224 65.3312 28.4672 13.2096 22.1184 7.68 49.664 1.1264 73.0112-13.7216 48.4352-52.9408 102.2976-65.536 118.6816-2.4576 3.2768-3.584 7.3728-3.072 11.4688 5.4272 43.3152 11.264 86.6304 12.6976 130.3552 1.2288 39.6288-0.4096 80.5888-17.6128 116.9408z" fill="#FFDDE1" p-id="12252"></path><path d="M887.3984 470.016c6.5536-23.3472 12.0832-50.8928-1.1264-73.0112-13.824-23.2448-38.6048-36.352-65.3312-28.4672-1.8432 0.512-3.584 1.1264-5.4272 1.7408 12.0832 5.0176 22.528 14.4384 29.7984 26.8288 13.2096 22.1184 7.68 49.664 1.1264 73.0112-13.7216 48.4352-52.9408 102.2976-65.536 118.6816-2.56 3.2768-3.584 7.3728-3.072 11.4688 5.4272 43.3152 11.264 86.6304 12.6976 130.3552 1.3312 39.424-0.2048 80.384-17.408 116.6336-15.36 32.4608-43.2128 69.4272-77.6192 79.4624-22.9376 6.7584-40.96 10.3424-56.7296 11.9808 27.4432 2.4576 53.3504 1.1264 97.6896-11.9808 34.4064-10.1376 62.2592-47.0016 77.6192-79.4624 17.2032-36.2496 18.7392-77.2096 17.408-116.6336-1.536-43.6224-7.2704-87.04-12.6976-130.3552-0.512-4.096 0.6144-8.192 3.072-11.4688 12.4928-16.4864 51.8144-70.3488 65.536-118.784z" fill="#EE9CA7" p-id="12253"></path><path d="M382.976 498.2784m-17.1008 0a17.1008 17.1008 0 1 0 34.2016 0 17.1008 17.1008 0 1 0-34.2016 0Z" fill="#EE9CA7" p-id="12254"></path><path d="M660.6848 498.2784m-17.1008 0a17.1008 17.1008 0 1 0 34.2016 0 17.1008 17.1008 0 1 0-34.2016 0Z" fill="#EE9CA7" p-id="12255"></path><path d="M296.3456 950.0672c-57.1392 0-109.1584-37.7856-124.7232-94.4128-21.6064-78.5408 2.6624-175.4112 14.1312-213.2992 1.6384-5.5296 0.9216-11.264-2.048-16.2816-24.4736-40.6528-42.3936-77.2096-53.248-108.8512-3.2768-9.4208-6.0416-18.7392-8.2944-28.4672-5.8368-25.1904 2.3552-50.2784 21.8112-67.2768s45.4656-21.7088 69.632-12.5952l0.4096 0.1024c0.3072 0.1024 0.512 0.2048 0.7168 0.2048l0.3072 0.1024c4.3008 1.4336 8.9088 1.1264 13.1072-0.7168 5.0176-2.1504 9.0112-6.4512 10.752-11.776 1.3312-3.9936 5.7344-6.144 9.728-4.8128 3.9936 1.3312 6.144 5.7344 4.8128 9.728-3.1744 9.4208-10.24 16.9984-19.2512 20.992-7.68 3.2768-15.872 3.6864-23.7568 1.2288-0.512-0.1024-0.9216-0.3072-1.1264-0.4096l-0.6144-0.1024-0.4096-0.2048c-0.1024 0-0.2048-0.1024-0.3072-0.1024-18.7392-6.9632-38.8096-3.2768-53.8624 9.9328-15.0528 13.2096-21.4016 32.768-16.896 52.224 2.1504 9.216 4.7104 18.0224 7.8848 26.9312 10.5472 30.6176 27.9552 66.2528 51.8144 105.8816 5.2224 8.4992 6.5536 18.944 3.6864 28.5696-8.6016 28.672-35.0208 128.1024-14.0288 204.9024 15.7696 57.6512 74.5472 93.0816 133.632 80.5888 29.9008-6.2464 83.0464-13.7216 166.912-13.7216 58.2656 0 93.7984 4.8128 122.368 8.704 41.3696 5.632 66.3552 9.0112 124.7232-7.9872 31.8464-9.3184 58.4704-45.056 72.8064-75.3664 1.8432-3.7888 6.3488-5.4272 10.24-3.6864 3.7888 1.8432 5.4272 6.3488 3.6864 10.24-7.68 16.1792-36.2496 70.0416-82.432 83.5584-61.44 18.0224-89.1904 14.2336-131.072 8.4992-28.16-3.7888-63.0784-8.6016-120.32-8.6016-82.5344 0-134.656 7.2704-163.84 13.312-9.0112 2.1504-18.0224 2.9696-26.9312 2.9696zM831.3856 738.2016c-4.096 0-7.4752-3.2768-7.68-7.3728-1.4336-41.3696-6.8608-83.3536-11.9808-124.0064l-0.7168-5.632c-0.7168-6.0416 0.8192-12.0832 4.5056-16.9984 8.3968-10.9568 36.9664-49.4592 54.4768-89.2928 4.096-9.3184 7.4752-18.432 9.9328-26.9312 6.5536-23.4496 11.0592-47.8208-0.3072-66.9696-13.0048-21.9136-34.7136-31.5392-56.5248-25.088-10.24 2.9696-21.0944 7.68-31.1296 13.6192-4.7104 2.7648-10.24 3.1744-15.36 1.2288-5.12-1.9456-9.0112-6.144-10.6496-11.3664-0.4096-1.2288-0.7168-2.3552-1.1264-3.4816-0.4096-1.1264-0.7168-2.3552-1.1264-3.4816-17.408-55.5008-37.9904-101.0688-61.1328-135.3728-26.624-39.5264-57.0368-64.512-90.3168-74.3424-25.1904-7.3728-43.52-25.9072-59.6992-42.1888-23.04-23.1424-38.2976-36.9664-61.44-28.672-8.192 2.9696-17.3056 8.704-27.0336 17.2032-26.7264 23.1424-55.0912 45.2608-84.2752 65.8432-6.144 4.3008-12.3904 8.2944-18.432 12.1856-21.0944 13.5168-41.0624 26.3168-52.3264 49.152-1.8432 3.7888-6.4512 5.3248-10.24 3.4816-3.7888-1.8432-5.3248-6.4512-3.4816-10.24 13.1072-26.624 35.84-41.1648 57.7536-55.1936 5.9392-3.7888 12.0832-7.68 17.92-11.8784 28.7744-20.2752 56.7296-42.0864 83.0464-64.8192 11.264-9.8304 21.7088-16.384 31.9488-20.0704 33.4848-11.9808 55.9104 10.5472 77.5168 32.256 15.5648 15.6672 31.744 31.9488 53.1456 38.1952 67.7888 20.0704 122.2656 94.0032 161.6896 219.9552 0.4096 1.2288 0.7168 2.3552 1.1264 3.4816 0.4096 1.1264 0.7168 2.3552 1.1264 3.4816 0.3072 1.024 1.024 1.4336 1.536 1.6384 0.512 0.2048 1.2288 0.3072 2.048-0.2048 11.1616-6.5536 23.1424-11.776 34.6112-15.0528 28.4672-8.3968 57.5488 4.096 74.0352 31.9488 14.4384 24.1664 9.1136 53.5552 1.9456 79.0528-2.6624 9.216-6.2464 18.944-10.6496 28.8768-18.2272 41.472-47.7184 81.2032-56.32 92.4672-1.2288 1.6384-1.8432 3.7888-1.536 5.8368l0.7168 5.632c5.2224 40.96 10.6496 83.3536 12.1856 125.44 0.1024 4.1984-3.1744 7.7824-7.3728 7.9872-0.3072-0.3072-0.4096-0.3072-0.4096-0.3072z" fill="#565656" p-id="12256"></path><path d="M645.001315 224.681501a7.9872 7.9872 0 1 0 13.791803-8.060248 7.9872 7.9872 0 1 0-13.791803 8.060248Z" fill="#FFFFFF" p-id="12257"></path><path d="M634.9824 210.6368c-2.048 0-4.1984-0.8192-5.7344-2.56-28.5696-31.6416-74.5472-32.5632-74.9568-32.5632-4.1984 0-7.68-3.4816-7.5776-7.7824s3.4816-7.68 7.7824-7.5776c2.1504 0 53.0432 0.8192 86.2208 37.6832 2.8672 3.1744 2.56 7.9872-0.512 10.8544-1.536 1.2288-3.3792 1.9456-5.2224 1.9456z" fill="#FFFFFF" p-id="12258"></path><path d="M258.3552 379.1872c-1.8432 0-3.6864-0.7168-5.2224-2.048-3.072-2.8672-3.2768-7.5776-0.512-10.752 4.8128-6.656 20.5824-61.8496 33.0752-111.5136 1.024-4.096 5.2224-6.656 9.3184-5.5296 4.096 1.024 6.656 5.2224 5.5296 9.3184-0.1024 0.3072-6.7584 26.8288-14.336 54.1696-15.872 56.9344-20.1728 61.5424-22.2208 63.7952-1.536 1.6384-3.584 2.56-5.632 2.56z m-5.7344-12.9024zM821.9648 834.56c-0.9216 0-1.9456-0.2048-2.8672-0.512-3.8912-1.536-5.8368-6.0416-4.3008-10.0352 9.0112-22.528 9.3184-73.8304 9.3184-74.3424 0-4.1984 3.4816-7.68 7.68-7.68s7.68 3.4816 7.68 7.68c0 2.2528-0.2048 54.784-10.3424 80.0768-1.3312 2.9696-4.1984 4.8128-7.168 4.8128z" fill="#565656" p-id="12259"></path><path d="M257.536 863.4368c-1.8432 0-3.7888-0.7168-5.2224-2.1504-4.608-4.4032-10.752-15.36-17.92-62.3616-3.8912-25.088-6.144-49.0496-6.2464-49.2544-0.4096-4.1984 2.6624-7.9872 6.8608-8.3968 4.1984-0.4096 7.9872 2.6624 8.3968 6.8608 0 0.2048 2.2528 23.7568 6.0416 48.3328 7.0656 46.3872 12.8 53.0432 13.4144 53.6576 2.9696 2.9696 3.1744 7.7824 0.2048 10.8544-1.536 1.7408-3.4816 2.4576-5.5296 2.4576z" fill="#FFFFFF" p-id="12260"></path><path d="M227.376853 729.972593a7.9872 7.9872 0 1 0 15.650645-3.199808 7.9872 7.9872 0 1 0-15.650645 3.199808Z" fill="#FFFFFF" p-id="12261"></path><path d="M348.672 175.0016m-72.9088 0a72.9088 72.9088 0 1 0 145.8176 0 72.9088 72.9088 0 1 0-145.8176 0Z" fill="#8CD3B6" p-id="12262"></path><path d="M348.672 255.5904c-44.4416 0-80.5888-36.1472-80.5888-80.5888 0-44.4416 36.1472-80.5888 80.5888-80.5888 44.4416 0 80.5888 36.1472 80.5888 80.5888 0 44.4416-36.1472 80.5888-80.5888 80.5888z m0-145.8176c-35.9424 0-65.2288 29.2864-65.2288 65.2288s29.2864 65.2288 65.2288 65.2288 65.2288-29.2864 65.2288-65.2288c0-36.0448-29.2864-65.2288-65.2288-65.2288z" fill="#565656" p-id="12263"></path><path d="M714.24 264.6016m-72.9088 0a72.9088 72.9088 0 1 0 145.8176 0 72.9088 72.9088 0 1 0-145.8176 0Z" fill="#8EC557" p-id="12264"></path><path d="M714.24 345.1904c-44.4416 0-80.5888-36.1472-80.5888-80.5888 0-44.4416 36.1472-80.5888 80.5888-80.5888s80.5888 36.1472 80.5888 80.5888c0 44.4416-36.1472 80.5888-80.5888 80.5888z m0-145.8176c-35.9424 0-65.2288 29.2864-65.2288 65.2288s29.2864 65.2288 65.2288 65.2288 65.2288-29.2864 65.2288-65.2288c0-36.0448-29.2864-65.2288-65.2288-65.2288z" fill="#565656" p-id="12265"></path><path d="M456.192 412.0576m-19.456 0a19.456 19.456 0 1 0 38.912 0 19.456 19.456 0 1 0-38.912 0Z" fill="#565656" p-id="12266"></path><path d="M586.9568 412.0576m-19.456 0a19.456 19.456 0 1 0 38.912 0 19.456 19.456 0 1 0-38.912 0Z" fill="#565656" p-id="12267"></path><path d="M120.5248 368.9472c-4.3008 0.3072-8.9088-0.9216-12.3904-3.584-6.5536-5.0176-9.5232-13.5168-10.4448-21.7088-1.6384-15.0528 2.9696-30.0032 11.4688-42.5984l11.3664 67.8912z" fill="#F12711" p-id="12268"></path><path d="M130.4576 364.032c-2.4576 3.072-6.0416 4.7104-9.9328 4.9152L109.1584 301.056c5.5296-8.0896 12.6976-15.2576 20.8896-20.5824 0.6144-0.4096 1.2288-0.8192 1.8432-1.1264l6.656 39.6288c-3.072 3.4816-5.2224 7.3728-6.144 11.5712-2.2528 11.264 5.12 24.4736-1.9456 33.4848z" fill="#FFFFFF" p-id="12269"></path><path d="M150.9376 309.5552c-4.7104 2.3552-9.0112 5.632-12.3904 9.4208l-6.656-39.6288c6.8608-4.1984 14.5408-7.168 22.4256-8.8064l-3.3792 39.0144z" fill="#F12711" p-id="12270"></path><path d="M168.2432 305.152c-5.632 0-11.776 1.6384-17.3056 4.5056l3.4816-39.1168c5.632-1.2288 11.3664-1.7408 16.9984-1.6384l-3.1744 36.2496z" fill="#FFFFFF" p-id="12271"></path><path d="M190.7712 315.8016c-4.5056-4.4032-9.5232-7.8848-15.1552-9.728-2.3552-0.7168-4.8128-1.024-7.4752-1.024l3.1744-36.2496c7.9872 0.2048 15.872 1.6384 23.1424 4.608l-3.6864 42.3936z" fill="#F12711" p-id="12272"></path><path d="M208.2816 339.3536c-5.0176-8.192-10.752-16.896-17.5104-23.4496l3.6864-42.3936c6.8608 2.7648 13.2096 6.8608 18.432 12.1856l-4.608 53.6576z" fill="#FFFFFF" p-id="12273"></path><path d="M228.0448 372.5312c-5.4272-9.8304-9.4208-16.6912-11.5712-19.968-2.56-3.8912-5.2224-8.3968-8.192-13.1072L212.992 285.696c7.7824 7.8848 12.9024 18.0224 18.0224 27.8528l1.8432 3.6864-4.8128 55.296z" fill="#F12711" p-id="12274"></path><path d="M247.5008 408.3712c-7.68-14.2336-14.2336-26.4192-19.456-35.84l4.8128-55.1936 19.3536 37.7856-4.7104 53.248z" fill="#FFFFFF" p-id="12275"></path><path d="M266.9568 444.8256c-6.9632-13.2096-13.5168-25.3952-19.456-36.4544l4.7104-53.3504c6.4512 12.5952 12.9024 25.088 19.3536 37.6832l-4.608 52.1216z" fill="#F12711" p-id="12276"></path><path d="M286.3104 481.5872c-6.7584-12.9024-13.312-25.1904-19.456-36.7616l4.608-52.1216c6.4512 12.5952 12.9024 25.088 19.3536 37.6832l-4.5056 51.2z" fill="#FFFFFF" p-id="12277"></path><path d="M305.7664 518.4512c-6.656-12.6976-13.1072-24.9856-19.3536-36.864l4.5056-51.2c3.6864 7.0656 7.2704 14.2336 10.9568 21.2992 2.7648 5.4272 5.632 10.8544 8.3968 16.2816l-4.5056 50.4832z" fill="#F12711" p-id="12278"></path><path d="M325.12 555.52c-6.5536-12.4928-13.0048-24.8832-19.3536-37.0688l4.4032-50.4832c6.4512 12.4928 12.9024 25.088 19.3536 37.5808l-4.4032 49.9712z" fill="#FFFFFF" p-id="12279"></path><path d="M344.4736 592.5888c-6.4512-12.3904-13.0048-24.8832-19.3536-37.0688l4.4032-49.8688c6.4512 12.4928 12.9024 25.088 19.3536 37.5808l-4.4032 49.3568z" fill="#F12711" p-id="12280"></path><path d="M363.8272 629.76c-6.4512-12.288-12.9024-24.7808-19.3536-37.1712l4.3008-49.4592c6.4512 12.4928 12.9024 25.088 19.3536 37.5808l-4.3008 49.0496z" fill="#FFFFFF" p-id="12281"></path><path d="M383.1808 667.0336c-6.3488-12.1856-12.8-24.6784-19.3536-37.2736l4.3008-49.0496c6.4512 12.4928 12.9024 25.088 19.3536 37.5808l-4.3008 48.7424z" fill="#F12711" p-id="12282"></path><path d="M402.5344 704.3072c-6.2464-12.0832-12.6976-24.576-19.3536-37.2736l4.3008-48.64c6.4512 12.4928 12.9024 25.088 19.3536 37.5808l-4.3008 48.3328z" fill="#FFFFFF" p-id="12283"></path><path d="M421.888 741.6832c-6.144-11.776-12.5952-24.2688-19.3536-37.376l4.3008-48.3328c6.4512 12.4928 12.9024 25.088 19.3536 37.5808l-4.3008 48.128z" fill="#F12711" p-id="12284"></path><path d="M489.1648 829.5424l-9.9328 6.4512c-3.3792 2.2528-7.9872 1.024-9.9328-2.56-2.048-3.9936-5.0176-9.728-8.704-16.896l4.1984-47.7184c8.9088 17.3056 17.8176 34.6112 26.624 51.9168 1.6384 2.9696 0.6144 6.8608-2.2528 8.8064z" fill="#FFFFFF" p-id="12285"></path><path d="M460.5952 816.4352c-5.12-9.9328-11.6736-22.6304-19.3536-37.4784L445.44 731.136c6.4512 12.4928 12.9024 25.088 19.3536 37.5808l-4.1984 47.7184z" fill="#F12711" p-id="12286"></path><path d="M441.2416 779.0592c-5.8368-11.3664-12.3904-23.8592-19.3536-37.376l4.1984-48.128c6.4512 12.4928 12.9024 25.088 19.3536 37.5808l-4.1984 47.9232z" fill="#FFFFFF" p-id="12287"></path><path d="M475.4432 844.8c-1.2288 0-2.4576-0.2048-3.6864-0.512-3.9936-1.024-7.3728-3.7888-9.216-7.3728-23.552-45.6704-231.0144-447.488-252.416-480.256-1.8432-2.7648-3.6864-5.8368-5.632-9.0112-8.192-13.5168-18.432-30.208-31.0272-34.2016-5.632-1.7408-13.9264-0.1024-21.0944 4.096-6.656 3.8912-11.264 9.3184-12.288 14.5408-0.7168 3.2768-0.1024 7.2704 0.4096 11.5712 1.024 7.5776 2.2528 17.1008-3.8912 24.9856-8.192 10.5472-23.7568 9.8304-33.0752 2.6624-9.4208-7.2704-12.4928-18.7392-13.4144-27.0336-2.8672-26.3168 11.5712-54.5792 35.84-70.4512 13.824-9.0112 30.72-13.5168 47.5136-12.8 17.8176 0.8192 33.792 7.5776 45.056 19.0464 8.704 8.8064 14.336 19.968 19.3536 29.7984 24.1664 47.4112 48.0256 93.7984 70.7584 138.0352L498.2784 817.152c3.3792 6.656 1.2288 14.7456-5.0176 18.8416l-9.9328 6.4512c-2.2528 1.536-5.12 2.3552-7.8848 2.3552zM168.3456 297.472c3.3792 0 6.656 0.4096 9.6256 1.4336 18.2272 5.632 30.1056 25.1904 39.6288 40.8576 1.8432 3.072 3.6864 6.0416 5.3248 8.6016 21.4016 32.5632 213.4016 404.3776 252.8256 480.8704l8.6016-5.632-189.44-368.4352c-22.7328-44.2368-46.592-90.7264-70.7584-138.0352-4.7104-9.216-9.6256-18.8416-16.5888-26.0096-17.408-17.7152-49.5616-19.5584-73.216-4.1984-19.5584 12.6976-31.232 35.2256-28.9792 55.9104 0.512 4.4032 2.048 12.288 7.4752 16.4864 3.584 2.7648 9.4208 2.7648 11.5712 0 2.048-2.6624 1.6384-6.8608 0.8192-13.5168-0.7168-5.12-1.4336-10.9568-0.2048-16.6912 1.9456-9.5232 9.1136-18.5344 19.5584-24.6784 7.5776-4.608 15.9744-6.9632 23.7568-6.9632z" fill="#565656" p-id="12288"></path><path d="M252.2112 355.5328c-0.3072 0-0.512-0.3072-0.512-0.512l1.1264-12.6976c0-0.3072 0.3072-0.512 0.512-0.512 0.3072 0 0.512 0.3072 0.512 0.512l-1.1264 12.6976c0 0.3072-0.3072 0.512-0.512 0.512z" fill="#565656" p-id="12289"></path><path d="M522.24 488.3456c-4.1984 0-7.68-3.4816-7.68-7.68 0-3.072-0.512-4.4032-0.7168-4.9152-0.3072 0-0.6144 0.1024-0.8192 0.1024l0.2048-0.1024-5.7344-14.2336c0.8192-0.3072 8.3968-3.1744 15.0528 1.3312 4.9152 3.3792 7.4752 9.3184 7.4752 17.7152-0.1024 4.4032-3.584 7.7824-7.7824 7.7824z" fill="#565656" p-id="12290"></path></svg>