<?xml version="1.0" standalone="no"?><!DOCTYPE svg PUBLIC "-//W3C//DTD SVG 1.1//EN" "http://www.w3.org/Graphics/SVG/1.1/DTD/svg11.dtd"><svg t="1744968565521" class="icon" viewBox="0 0 1024 1024" version="1.1" xmlns="http://www.w3.org/2000/svg" p-id="2426" xmlns:xlink="http://www.w3.org/1999/xlink" width="32" height="32"><path d="M218.284617 899.677623s166.511177-8.320731 277.173394-9.333029c122.956069-1.1264 318.820937 9.333029 318.820938 9.333029l203.214262 22.97856s-317.478034 18.815269-522.0352 18.671908C294.821303 941.187657 2.864274 922.656183 2.864274 922.656183l215.420343-22.97856z" fill="#000000" opacity=".5" p-id="2427"></path><path d="M317.302491 95.685486c-17.79712-7.001234-32.607086-5.544229-39.046582-2.217692C247.808 109.193509 237.62944 134.9632 238.150217 164.825966c0.468114 27.01312 9.883063 56.349257 21.243612 81.1008 22.001371-37.566171 55.410103-76.358217 107.938377-102.1952a14.690011 14.690011 0 0 1-1.410195-2.194286c-13.1072-25.029486-31.545051-39.131429-48.61952-45.851794zM238.085851 269.1072a14.56128 14.56128 0 0 0 6.0416 6.249326c-10.412617 22.694766-17.086171 43.39712-21.963337 58.53184-3.273874 10.155154-5.740251 17.802971-7.984274 21.863863-10.146377 18.361783-32.513463 29.813029-59.017509 43.379565-58.719086 30.058789-137.742629 70.509714-149.190948 219.560229-10.713966 139.495131 125.5424 256.198949 254.191908 256.198948 68.783543 0 109.088183 11.18208 147.201463 21.755612 33.165897 9.201371 64.672914 17.94048 111.844206 18.449554 48.47616 0.520777 80.114834-7.364023 113.839543-15.772526 37.115611-9.251109 76.75904-19.131246 144.161646-19.131245 128.646583 0 254.314789-118.898103 238.729508-268.06272-14.736823-141.063314-85.106103-173.003337-138.623268-197.295543-25.474194-11.565349-47.133257-21.395749-57.153829-40.436297-1.117623-2.121143-2.425417-7.410834-4.327131-15.090835-3.724434-15.038171-9.716297-39.242606-20.962743-66.732617 0.236983-0.333531 0.462263-0.678766 0.672914-1.035703 16.290377-27.4432 33.34144-64.936229 36.963474-102.171794 3.695177-38.019657-6.711589-77.177417-46.954788-102.868114-15.444846-9.859657-39.324526-11.319589-62.528366-4.025783-23.952823 7.527863-48.900389 24.76032-67.490377 55.012206a14.654903 14.654903 0 0 0-1.536 3.39968c-37.630537-16.931109-84.073326-27.52512-141.490469-27.52512-46.998674 0-86.264686 7.255771-119.149714 19.274605a14.570057 14.570057 0 0 0-1.518446-4.66944c-16.410331-31.340251-40.290011-50.243291-63.827383-59.503177-22.811794-8.979017-46.913829-9.391543-63.183725-0.988891C222.090971 89.547337 208.234789 127.341714 208.896 165.332114c0.646583 37.086354 14.912366 75.445394 29.189851 103.775086z m441.48736-115.01568c48.464457 28.505234 79.611611 68.104777 99.980435 105.94304 11.623863-22.618697 21.425006-48.718994 23.835794-73.499794 2.94912-30.327954-5.07904-57.18016-33.578423-75.375177-5.880686-3.753691-20.085029-6.407314-38.013806-0.775315-17.176869 5.397943-36.410514 18.130651-51.334582 42.419932-0.277943 0.45056-0.57344 0.877714-0.889418 1.287314z m168.456778 279.402789c-18.475886-8.964389-41.208686-21.623954-53.757075-45.471452-2.284983-4.338834-3.651291-9.353509-4.292023-11.69408l-0.029257-0.108251c-0.772389-2.840869-1.632549-6.304914-2.507337-9.847955l-0.002926-0.005851-0.315977-1.281463c-2.048-8.265143-4.640183-18.572434-8.282697-30.404023-7.302583-23.712914-18.67776-53.00224-37.346743-81.454811-36.381257-55.445211-102.078171-110.609554-228.98688-110.609554-117.467429 0-179.366766 48.347429-214.890788 98.040685-18.26816 25.553189-30.08512 52.279589-38.397075 74.994835-3.6864 10.073234-6.609189 19.137097-9.204297 27.191588l-1.012297 3.139292-0.251611 0.772388c-2.363977 7.314286-5.38624 16.673646-8.964389 23.148252-12.835109 23.221394-36.49536 36.954697-55.819703 47.244434-5.617371 2.99008-11.155749 5.828023-16.653165 8.645486-15.711086 8.045714-31.062309 15.910034-46.75584 26.615222-20.2752 13.832777-39.34208 31.439726-54.418286 57.071909-15.117166 25.7024-27.124297 61.018697-30.997943 111.449234-4.54656 59.193051 21.972114 115.088823 65.869531 157.014309 44.07296 42.092251 103.277714 67.689326 159.147155 67.689326 67.958491 0 110.185326 10.462354 147.520365 20.743314 2.43712 0.669989 4.839131 1.337051 7.217738 1.995337 33.086903 9.169189 61.35808 17.001326 104.626468 17.466514 44.681509 0.482743 73.221851-6.626743 106.779794-14.985508l3.142218-0.784092 1.653028-0.4096c36.808411-9.139931 78.435474-18.724571 146.110172-18.724571 112.584411 0 223.278811-105.132617 209.630354-235.76576-5.084891-48.678034-17.030583-81.425554-31.188114-104.3456-14.043429-22.735726-31.243703-37.39648-49.427018-48.572709-13.4144-8.247589-25.962789-13.935177-39.251382-19.959223-6.105966-2.767726-12.366994-5.605669-18.944-8.797622z" fill="#523805" p-id="2428"></path><path d="M804.899109 382.247497c29.473646 56.018651 165.042469 28.010789 185.67168 225.552092 14.780709 141.522651-104.398263 254.329417-226.403475 254.329417s-148.114286 34.154789-244.680411 33.11616c-96.138971-1.032777-123.669943-38.145463-245.672229-38.145463-122.008137 0-251.231086-110.723657-241.07008-243.074194 15.757897-205.241783 166.514103-193.448229 197.459383-249.46688C245.458651 336.945737 271.465326 134.582857 513.132251 134.582857c260.859611 0 282.846354 230.7072 291.766858 247.66464z" fill="#EACC91" p-id="2429"></path><path d="M605.73696 523.562423c-57.490286 17.092023-88.567223 27.966903-154.565486 9.29792-69.655406-19.704686-154.407497-166.233234-308.381988-50.802103-157.538011 149.618103 0 350.664411 153.974491 350.664411 93.028937 0 123.626057 32.917211 235.982263 32.674378 62.291383-0.137509 132.38272-16.577097 202.509166-23.540298 248.05376-24.625737 241.064229-290.772114 143.950994-359.798491-138.289737-98.292297-158.357211 7.282103-273.46944 41.504183z" fill="#F9F5EA" p-id="2430"></path><path d="M258.925714 250.148571c-27.472457-54.789851-40.96-125.805714 19.017143-157.988571 13.469989-7.226514 62.856046-3.578149 92.16 52.662857-54.096457 28.092709-86.946377 65.506743-111.177143 105.325714z m519.314286 14.628572c27.472457-56.64768 46.811429-131.657143-11.702857-156.525714-7.24992-3.080777-59.930331-9.874286-89.234286 48.274285 54.096457 29.043566 76.706377 67.086629 100.937143 108.251429z" fill="#987A3F" p-id="2431"></path><path d="M714.503314 529.779566c29.178149 0 52.829623-14.611017 52.829623-32.630492 0-18.0224-23.651474-32.630491-52.829623-32.630491-29.175223 0-52.829623 14.608091-52.829623 32.630491 0 18.019474 23.6544 32.630491 52.829623 32.630492z m-374.465097 9.321325c30.035383 0 54.383177-14.608091 54.383177-32.627565 0-18.0224-24.347794-32.630491-54.383177-32.630492-30.035383 0-54.383177 14.608091-54.383177 32.630492 0 18.019474 24.347794 32.627566 54.383177 32.627565z" fill="#F79A99" p-id="2432"></path><path d="M650.752 505.458103c-23.759726 5.190217-38.87104 0.49152-46.518857-16.761417-6.59456-14.877257-2.516114-45.164251 15.529691-53.160229 18.04288-7.998903 42.153691 2.881829 49.816137 24.198583 6.383909 17.762011 4.932754 40.532846-18.826971 45.723063z m-254.490331 1.237577c23.759726 5.190217 38.87104 0.49152 46.518857-16.761417 6.59456-14.877257 2.516114-45.164251-15.529692-53.163154-18.04288-7.995977-42.153691 2.884754-49.816137 24.201508-6.383909 17.762011-4.932754 40.532846 18.826972 45.723063z" fill="#000504" p-id="2433"></path><path d="M627.817326 464.082651c-3.387977 0.555886-6.69696-2.422491-7.39328-6.658925-0.69632-4.233509 1.483337-8.115931 4.871314-8.674743 3.385051-0.555886 6.69696 2.425417 7.39328 6.658926 0.69632 4.233509-1.486263 8.115931-4.871314 8.674742z m-208.618057 1.237578c3.385051 0.558811 6.69696-2.422491 7.39328-6.656s-1.486263-8.118857-4.871315-8.674743c-3.387977-0.558811-6.69696 2.422491-7.39328 6.656s1.483337 8.118857 4.871315 8.674743z" fill="#FFFFFF" p-id="2434"></path><path d="M187.307154 827.383223c16.811154-12.179749 45.524114-28.475977 76.162195-37.33504 31.021349-8.973166 60.749531-9.447131 82.783085 5.076114 25.708251 16.942811 30.196297 51.123931 17.466515 88.810057-6.170331 18.265234-16.032914 35.755154-27.642149 49.558675-11.75552 13.981989-24.39168 23.130697-35.699566 26.5216-9.906469 2.972526-25.134811 0.231131-43.651657-9.836252-17.94048-9.757257-36.357851-25.02656-51.191223-42.223908-14.985509-17.375817-25.219657-35.447954-28.464274-50.424686-1.591589-7.349394-1.354606-13.265189 0.134583-17.855634 1.41312-4.353463 4.227657-8.402651 9.567086-11.916435l0.272091-0.181394 0.263314-0.193097z m175.045486-56.68864c-32.659749-21.52448-72.850286-18.633874-107.010926-8.753737-34.394697 9.947429-65.995337 27.879131-84.948114 41.571474-10.433097 6.951497-17.478217 16.231863-21.015406 27.130149-3.493303 10.760777-3.268023 22.144731-0.904045 33.0752 4.675291 21.58592 18.2272 44.008594 34.903771 63.341714 16.822857 19.511589 37.931886 37.162423 59.37152 48.821394 20.860343 11.342994 44.865829 18.508069 66.036297 12.156343 18.689463-5.605669 35.813669-19.216091 49.68448-35.714194 14.022949-16.676571 25.658514-37.393554 32.966949-59.026286 14.224823-42.10688 13.575314-94.485943-29.084526-122.602057z m478.53568 56.68864c-16.811154-12.179749-45.524114-28.475977-76.162194-37.33504-31.021349-8.973166-60.749531-9.447131-82.783086 5.076114-25.708251 16.942811-30.196297 51.123931-17.466514 88.810057 6.170331 18.265234 16.032914 35.755154 27.642148 49.558675 11.75552 13.981989 24.39168 23.130697 35.699566 26.5216 9.906469 2.972526 25.134811 0.231131 43.651657-9.836252 17.94048-9.757257 36.357851-25.02656 51.194149-42.223908 14.982583-17.375817 25.219657-35.447954 28.461348-50.424686 1.591589-7.349394 1.354606-13.265189-0.134583-17.855634-1.41312-4.353463-4.227657-8.402651-9.56416-11.916435l-0.272091-0.181394-0.26624-0.193097z m-175.045486-56.68864c32.659749-21.52448 72.853211-18.633874 107.013852-8.753737 34.391771 9.947429 65.992411 27.879131 84.948114 41.571474 10.433097 6.951497 17.475291 16.231863 21.01248 27.130149 3.493303 10.760777 3.270949 22.144731 0.904046 33.0752-4.672366 21.58592-18.230126 44.008594-34.903772 63.341714-16.822857 19.511589-37.931886 37.162423-59.368594 48.821394-20.863269 11.342994-44.868754 18.508069-66.036297 12.156343-18.692389-5.605669-35.813669-19.216091-49.687406-35.714194-14.020023-16.676571-25.658514-37.393554-32.966948-59.026286-14.221897-42.10688-13.575314-94.485943 29.084525-122.602057z" fill="#523805" p-id="2435"></path><path d="M185.81504 818.72896c33.168823-24.192731 112.195291-64.155063 162.956434-30.480091 63.449966 42.089326 9.531977 161.713006-46.147291 178.52416-57.683383 17.416777-175.934903-108.857051-116.809143-148.044069z m655.520914 1.609143c-32.700709-23.458377-110.61248-62.209463-160.659748-29.555566-62.557623 40.813714-9.397394 156.812434 45.497783 173.114514 56.870034 16.887223 173.456823-105.559771 115.161965-143.558948z" fill="#EACC91" p-id="2436"></path><path d="M533.898971 591.240046c17.814674-4.189623 31.439726-26.410423 31.439726-37.610057 0-12.402103-16.697051-14.529097-37.291154-14.529098-20.597029 0-37.291154 2.126994-37.291154 14.529098 0 11.199634 13.622126 33.417509 31.439725 37.610057v19.33312h0.561737a11.234743 11.234743 0 0 0-0.561737 0.351085c-17.44896 11.843291-43.33568 24.1664-65.152731 24.704732-10.640823 0.263314-19.581806-2.282057-26.363612-8.270994-6.813989-6.018194-12.65664-16.565394-14.924068-34.728229a8.777143 8.777143 0 1 0-17.419703 2.176731c2.612663 20.907154 9.728 36.000914 20.722834 45.708435 11.027017 9.736777 24.757394 13.001874 38.417555 12.662491 25.000229-0.6144 52.156709-13.285669 70.71744-25.181623 19.239497 11.828663 47.396571 24.368274 73.280365 24.865646 14.072686 0.269166 28.195109-3.025189 39.596617-12.721006 11.416137-9.70752 18.914743-24.830537 21.740983-45.840091a8.777143 8.777143 0 1 0-17.396297-2.340572c-2.43712 18.10432-8.534309 28.701257-15.719863 34.810149-7.200183 6.12352-16.679497 8.753737-27.884983 8.54016-22.870309-0.438857-49.833691-12.71808-67.923382-24.479451a8.84736 8.84736 0 0 0-0.415452-0.257463h0.427154v-19.33312z" fill="#523805" p-id="2437"></path><path d="M518.612114 549.946514c0.295497 2.557074-3.490377 5.096594-8.461165 5.67296-4.970789 0.576366-9.239406-1.029851-9.534903-3.586925-0.298423-2.557074 3.490377-5.096594 8.461165-5.67296 4.970789-0.576366 9.239406 1.029851 9.534903 3.586925z" fill="#FFFFFF" p-id="2438"></path></svg>