<?xml version="1.0" standalone="no"?><!DOCTYPE svg PUBLIC "-//W3C//DTD SVG 1.1//EN" "http://www.w3.org/Graphics/SVG/1.1/DTD/svg11.dtd"><svg t="1744968611286" class="icon" viewBox="0 0 1024 1024" version="1.1" xmlns="http://www.w3.org/2000/svg" p-id="3680" xmlns:xlink="http://www.w3.org/1999/xlink" width="32" height="32"><path d="M217.57952 856.491154s167.09632-8.349989 278.150583-9.365211c123.386149-1.129326 319.941486 9.365211 319.941486 9.365211l203.928137 23.06048s-318.592731 18.879634-523.869623 18.736275c-201.341806-0.140434-494.328686-18.736274-494.328686-18.736275l216.181029-23.06048z" fill="#000000" opacity=".5" p-id="3681"></path><path d="M868.530469 388.253989c-17.952183-14.344777-37.021989-31.659154-48.771658-55.158492-4.684069-9.365211-8.984869-20.558994-13.115977-31.5392a1941.855086 1941.855086 0 0 1-1.98656-5.292617c-3.6864-9.824549-7.51616-20.044069-11.989577-30.828251-10.491611-25.298651-23.888457-52.104046-43.759908-76.750263-38.496549-47.747657-104.968777-92.019566-235.101623-92.019566-119.117531 0-183.737783 43.894491-223.407543 91.077486-20.401006 24.265874-34.865737 50.231589-46.644663 73.962057a1177.10848 1177.10848 0 0 0-9.139931 18.897188 1246.746331 1246.746331 0 0 1-6.933943 14.409143c-4.801097 9.774811-10.1376 20.044069-16.167497 28.265326-15.623314 21.307977-36.056503 37.633463-54.980023 51.893394a2238.765349 2238.765349 0 0 1-11.117715 8.306103c-15.582354 11.594606-30.16704 22.443154-43.985188 35.538652-31.688411 30.029531-58.888777 71.586377-58.888777 153.594148 0 60.023954 29.227886 112.186514 73.198445 151.22432 44.245577 39.283566 101.487177 63.400229 152.508709 67.537189 59.081874 4.789394 99.298743 17.533806 134.939794 28.824137l3.961417 1.255131c35.936549 11.3664 67.344091 20.760869 113.693258 21.25824 44.283611 0.476891 72.739109-7.615634 106.653988-17.258788l4.9152-1.395566c37.282377-10.56768 79.64672-21.694171 148.026514-21.694171 110.884571 0 203.073829-87.844571 203.073829-229.750492 0-38.110354-7.41376-66.050926-18.107246-87.677806-10.737371-21.723429-25.526857-38.581394-42.387748-53.63712-11.404434-10.181486-22.229577-18.358857-33.601829-26.945828-6.694034-5.05856-13.581166-10.257554-20.883748-16.094354z m37.118537-8.329509c-25.061669-18.970331-47.891017-36.2496-59.722606-59.915703-4.488046-8.976091-8.84736-20.60288-13.841554-33.926583C802.368366 206.818743 750.103406 67.408457 513.805166 67.408457c-209.94048 0-271.383406 128.842606-305.892206 201.207223-7.524937 15.778377-13.768411 28.870949-19.994331 37.358446-15.219566 20.755017-36.717714 36.735269-59.444663 53.631268C74.365806 399.83104 13.282743 445.238126 13.282743 572.609097c0 140.399177 137.216 238.568594 252.60032 247.922103 55.743634 4.520229 93.315657 16.422034 128.73728 27.642149 37.893851 12.00128 73.327177 23.22432 125.908114 23.788982 48.581486 0.523703 80.536137-8.569417 114.56512-18.253531 37.548617-10.687634 77.622126-22.092069 145.343634-22.092069 129.100069 0 232.330971-103.081691 232.330972-259.007634 0-111.604297-57.870629-155.408091-107.119177-192.684617z" fill="#000000" p-id="3682"></path><path d="M820.045531 335.368777c29.827657 56.66816 156.900206 58.953143 165.533989 228.155977 7.457646 146.139429-94.257737 252.179017-217.728731 252.179017-123.47392 0-150.852754 39.634651-248.583315 38.58432-97.291703-1.047406-154.068114-47.694994-251.00288-53.660525-96.93184-5.965531-242.922057-103.225051-232.641097-237.102812 13.083794-170.33216 147.637394-189.384411 178.95424-246.049645C230.019657 289.543314 268.264594 84.845714 512.83968 84.845714c263.995977 0 298.177097 233.3696 307.205851 250.523063z" fill="#FFFFFF" p-id="3683"></path><path d="M349.625783 41.003886c-26.506971 28.066377 130.978377 202.705189 121.873554 98.927177l21.828754-59.251566c-104.46848 26.506971-128.108251-53.707337-143.702308-39.672686z" fill="#FFFFFF" p-id="3684"></path><path d="M353.502354 52.048457l0.2048-0.073143a0.769463 0.769463 0 0 0-0.18432 0.064366l-0.02048 0.008777z m4.435383 1.767132c0.991817 0.684617 2.200137 1.614994 3.66592 2.8672 2.352274 2.018743 4.774766 4.327131 7.65952 7.077302 0.945006 0.90112 1.939749 1.851977 2.998857 2.855498 4.125257 3.902903 8.891246 8.279771 14.385737 12.568868 11.082606 8.648411 25.158217 16.95744 43.795018 21.158766 18.613394 4.195474 41.036069 4.125257 68.634331-2.878903a11.702857 11.702857 0 1 0-5.757806-22.685989c-24.634514 6.252251-43.280091 5.988937-57.730194 2.729692-14.426697-3.247543-25.409829-9.649006-34.540983-16.776046-4.610926-3.598629-8.742034-7.3728-12.6976-11.117714-0.854309-0.807497-1.717394-1.632549-2.586331-2.463452-2.998857-2.861349-6.06208-5.781211-8.940983-8.250514-7.001234-5.991863-17.712274-13.622126-31.071086-8.935131-5.351131 1.875383-8.54016 5.983086-10.11712 10.029348-1.457006 3.741989-1.702766 7.703406-1.547703 11.117715 0.315977 6.890057 2.466377 15.035246 5.599817 23.3472 6.354651 16.85504 17.908297 37.425737 32.990355 55.872365 15.017691 18.364709 34.289371 35.547429 56.431177 44.336275 22.706469 9.0112 48.116297 8.993646 73.306697-6.802286a11.702857 11.702857 0 1 0-12.434286-19.830492c-18.241829 11.439543-35.734674 11.42784-52.238628 4.877166-17.068617-6.775954-33.309257-20.722834-46.943086-37.39648-13.569463-16.594651-23.803611-34.971063-29.210331-49.309988-1.887086-5.008823-3.054446-9.177966-3.651292-12.3904z" fill="#000000" p-id="3685"></path><path d="M732.101486 494.647589c37.890926 0 68.608-19.546697 68.608-43.660435 0-24.110811-30.717074-43.657509-68.608-43.657508-37.890926 0-68.608 19.546697-68.608 43.657508 0 24.113737 30.717074 43.660434 68.608 43.660435zM304.862354 500.882286c37.890926 0 68.608-19.546697 68.608-43.657509 0-24.113737-30.717074-43.660434-68.608-43.660434-37.888 0-68.608 19.546697-68.608 43.660434 0 24.110811 30.72 43.657509 68.608 43.657509z" fill="#FFC0CA" p-id="3686"></path><path d="M468.585326 23.750949c-22.627474 5.231177-26.60352 71.911131 18.712868 82.639725l51.451612-6.237623c-66.627291-20.114286-57.516617-78.280411-70.16448-76.402102z" fill="#FFFFFF" p-id="3687"></path><path d="M467.151726 37.106834c1.462857 3.709806 3.627886 9.192594 6.500937 14.473509 8.546011 15.711086 24.71936 33.516983 60.57984 44.345051a10.24 10.24 0 0 0 5.921646-19.608137c-30.766811-9.289143-42.572069-23.607589-48.511269-34.523428-2.258651-4.148663-3.578149-7.519086-4.906423-10.901212-0.652434-1.664731-1.304869-3.332389-2.074331-5.09952-0.945006-2.173806-2.442971-5.377463-4.929829-7.908206-3.142217-3.19488-7.55712-5.020526-12.650788-4.262765l-0.403749 0.058514-0.397897 0.093623c-10.415543 2.407863-16.811154 11.278629-20.202057 19.801234-3.534263 8.882469-4.862537 19.716389-3.806355 30.439132 2.106514 21.34016 14.318446 45.62944 42.665692 52.341028a10.242926 10.242926 0 0 0 4.719177-19.929966c-16.966217-4.017006-25.424457-18.432-27.004343-34.421028-0.781166-7.943314 0.292571-15.430217 2.454674-20.860343 0.672914-1.691063 1.37216-3.013486 2.045075-4.037486z" fill="#000000" p-id="3688"></path><path d="M641.88416 548.0448c3.668846-3.575223 6.980754-9.845029 6.980754-22.77376 0-7.445943-2.504411-13.194971-7.314285-18.197943-5.146331-5.354057-13.396846-10.275109-25.275246-14.344777-23.87968-8.186149-58.151497-11.518537-97.794926-11.518537-39.359634 0-73.663634 4.160366-97.590126 12.761966-24.520411 8.812251-32.791406 19.944594-32.791405 31.299291 0 12.387474 3.241691 18.464183 6.919314 22.010149 4.119406 3.970194 11.152823 7.080229 23.007817 8.78592 11.761371 1.691063 26.269989 1.7408 43.613623 1.26976 4.95616-0.134583 10.146377-0.313051 15.520914-0.494446 12.96384-0.444709 26.986789-0.924526 41.319863-0.924526 15.199086 0 29.98272 0.59392 43.563886 1.143954 4.610926 0.18432 9.087269 0.365714 13.388068 0.514926 17.378743 0.602697 31.869806 0.69632 43.619475-0.898194 11.825737-1.606217 18.768457-4.672366 22.832274-8.633783z m-80.667794 23.625143c59.22816 2.387383 102.27712 4.122331 102.27712-46.398903 0-45.433417-64.924526-58.689829-145.013029-58.689829-80.085577 0-145.010103 16.767269-145.010103 58.689829 0 49.760549 44.110994 48.247954 104.46848 46.1824 12.867291-0.441783 26.468937-0.906971 40.541623-0.906971 14.874331 0 29.227886 0.576366 42.735909 1.123474z" fill="#B8893B" p-id="3689"></path><path d="M652.434286 518.629669c0 56.495543-60.255086 41.22624-134.582857 41.22624s-134.582857 13.745006-134.582858-41.22624C383.268571 480.457874 443.523657 465.188571 517.851429 465.188571s134.582857 12.071497 134.582857 53.441098z" fill="#FFC15C" p-id="3690"></path><path d="M647.949166 519.981349c3.835611-3.443566 7.153371-9.262811 7.153371-21.386972 0-11.969097-8.490423-22.846903-34.532206-31.06816-25.444937-8.031086-61.80864-11.266926-103.64928-11.266926-41.5744 0-77.970286 4.046263-103.453257 12.484023-26.609371 8.809326-34.725303 19.798309-34.725303 29.851063 0 11.588754 3.238766 17.22368 7.094858 20.646766 4.496823 3.9936 12.214857 7.109486 24.953417 8.794697 12.571794 1.664731 28.010789 1.708617 46.2848 1.252206 5.251657-0.131657 10.737371-0.304274 16.407405-0.482743 13.648457-0.43008 28.370651-0.895269 43.43808-0.895269 15.971474 0 31.495314 0.576366 45.796206 1.10592 4.868389 0.181394 9.596343 0.356937 14.15168 0.503223 18.30912 0.585143 33.73056 0.684617 46.290652-0.886491 12.715154-1.588663 20.348343-4.663589 24.789577-8.651337z m-85.992595 23.645622c62.411337 2.317166 107.774537 4.002377 107.774538-45.032594 0-44.096366-68.414903-56.963657-152.810058-56.963657-84.392229 0-152.807131 16.275749-152.807131 56.963657 0 48.297691 46.486674 46.828983 110.085851 44.824869 13.55776-0.427154 27.89376-0.88064 42.72128-0.88064 15.675977 0 30.798994 0.561737 45.03552 1.088365z" fill="#B8893B" p-id="3691"></path><path d="M655.36 497.210514c0 46.22336-62.21824 33.73056-138.971429 33.73056s-138.971429 11.24352-138.971428-33.73056C377.417143 465.978514 439.635383 453.485714 516.388571 453.485714s138.971429 9.877211 138.971429 43.7248z" fill="#FFC15C" p-id="3692"></path><path d="M367.232731 458.611566c17.22368 0 31.185189-17.065691 31.185189-38.116206s-13.961509-38.116206-31.185189-38.116206c-17.220754 0-31.185189 17.065691-31.185188 38.116206s13.964434 38.116206 31.185188 38.116206z m296.260755 0c17.22368 0 31.185189-17.065691 31.185188-38.116206s-13.961509-38.116206-31.185188-38.116206c-17.22368 0-31.185189 17.065691-31.185189 38.116206s13.961509 38.116206 31.185189 38.116206z" fill="#000000" p-id="3693"></path><path d="M353.201006 413.564343a7.794103 7.794103 0 1 0 0-15.591132 7.794103 7.794103 0 0 0 0 15.591132z m296.260754 0a7.794103 7.794103 0 1 0 0-15.591132 7.794103 7.794103 0 0 0 0 15.591132z" fill="#FFFFFF" p-id="3694"></path><path d="M357.879223 360.5504c12.053943 0 21.828754-4.885943 21.828754-10.91584 0-6.026971-9.774811-10.912914-21.828754-10.912914-12.056869 0-21.83168 4.885943-21.83168 10.912914 0 6.029897 9.774811 10.91584 21.83168 10.91584z m296.257828-3.118811c12.056869 0 21.828754-4.189623 21.828755-9.356435s-9.771886-9.353509-21.828755-9.353508-21.828754 4.186697-21.828754 9.353508 9.771886 9.356434 21.828754 9.356435z" fill="#D9D9D9" p-id="3695"></path><path d="M133.699291 776.309029c23.587109-25.058743 60.571063-50.512457 97.50528-64.453486 37.794377-14.268709 70.521417-14.78656 90.325578 1.635474 28.531566 23.660251 49.470903 70.828617 58.376777 117.917989 4.394423 23.2448 5.661257 45.515337 3.759543 63.628434-1.969006 18.762606-7.048046 30.427429-12.715155 35.605943-22.536777 20.588251-50.173074 24.707657-79.99488 17.554286-30.251886-7.255771-61.875931-26.038857-89.453714-49.8688-27.5456-23.800686-49.982903-51.712-62.329417-75.954469-6.199589-12.173897-9.464686-22.662583-10.067383-30.775589-0.59392-7.960869 1.389714-12.244114 4.019931-14.716342l0.295498-0.277943 0.277942-0.295497z m204.639086-83.08736c-31.340251-25.986194-76.577646-21.047589-116.431726-6.00064-40.588434 15.31904-80.81408 42.908526-107.127954 70.773028-9.976686 9.58464-12.893623 22.659657-11.931063 35.559132 0.956709 12.878994 5.789989 26.881463 12.86144 40.769828 14.201417 27.882057 39.020251 58.38848 68.578743 83.929966 29.520457 25.509303 64.842606 46.989897 100.527543 55.550537 36.10624 8.660114 73.391543 4.145737 103.89504-23.718766 12.981394-11.85792 18.982034-31.711817 21.144137-52.297143 2.229394-21.23776 0.67584-46.147291-4.07552-71.2704-9.385691-49.640594-32.042423-103.938926-67.44064-133.295542z m561.075932 83.08736c-23.584183-25.058743-60.571063-50.512457-97.50528-64.453486-37.794377-14.268709-70.518491-14.78656-90.322652 1.635474-28.531566 23.660251-49.473829 70.828617-58.379703 117.917989-4.394423 23.2448-5.658331 45.515337-3.759543 63.628434 1.969006 18.762606 7.048046 30.427429 12.715155 35.605943 22.539703 20.588251 50.173074 24.707657 79.997805 17.554286 30.24896-7.255771 61.875931-26.038857 89.453715-49.8688 27.542674-23.800686 49.979977-51.712 62.326491-75.954469 6.199589-12.173897 9.464686-22.662583 10.070309-30.775589 0.590994-7.960869-1.389714-12.244114-4.022857-14.716342l-0.295498-0.277943-0.277942-0.295497z m-204.63616-83.08736c31.337326-25.986194 76.57472-21.047589 116.431725-6.00064 40.585509 15.31904 80.811154 42.908526 107.125029 70.773028 9.976686 9.58464 12.893623 22.659657 11.933988 35.559132-0.959634 12.878994-5.789989 26.881463-12.864365 40.769828-14.201417 27.882057-39.017326 58.38848-68.575817 83.929966-29.523383 25.509303-64.842606 46.989897-100.527543 55.550537-36.109166 8.660114-73.391543 4.145737-103.897966-23.718766-12.981394-11.85792-18.982034-31.711817-21.141211-52.297143-2.229394-21.23776-0.678766-46.147291 4.072594-71.2704 9.388617-49.640594 32.045349-103.938926 67.443566-133.295542z" fill="#000000" p-id="3696"></path><path d="M902.079634 770.960823c-47.130331-49.906834-146.110171-100.103314-194.419565-60.179017-60.389669 49.903909-82.367634 191.028663-47.133258 223.103268 100.20864 91.220846 290.157714-117.423543 241.552823-162.924251z m-768.629028 1.246354c46.097554-48.78336 142.897737-97.85344 190.148023-58.824411 59.061394 48.78336 80.556617 186.73664 46.097554 218.088594-98.005577 89.172846-283.782583-114.784549-236.245577-159.264183z" fill="#FFFFFF" p-id="3697"></path></svg>