<?xml version="1.0" standalone="no"?><!DOCTYPE svg PUBLIC "-//W3C//DTD SVG 1.1//EN" "http://www.w3.org/Graphics/SVG/1.1/DTD/svg11.dtd"><svg t="1744968572608" class="icon" viewBox="0 0 1024 1024" version="1.1" xmlns="http://www.w3.org/2000/svg" p-id="2605" xmlns:xlink="http://www.w3.org/1999/xlink" width="32" height="32"><path d="M249.621943 950.506057s156.768549-7.835063 260.953234-8.788846c115.758811-1.059109 300.163657 8.788846 300.163657 8.788846l191.318309 21.632732s-298.896823 17.712274-491.481966 17.577691C321.682286 989.584823 46.811429 972.138789 46.811429 972.138789l202.810514-21.632732z" fill="#000000" opacity=".5" p-id="2606"></path><path d="M244.297143 52.662857c-114.787474-11.369326-122.988251 254.815086-111.776914 401.381669C76.194377 534.864457 63.122286 609.660343 71.68 677.302857c16.1792 127.894674 153.834057 187.947886 218.018377 214.168137 106.083474 43.338606 363.046034 84.953966 545.543314-50.568045 121.15968-89.974491 136.352914-279.051703 45.655772-386.858423C902.155703 77.262263 805.759269 45.766949 751.908571 59.977143c-38.657463 10.201966-136.771291 118.751817-169.691428 174.08-47.033783-13.750857-127.950263-13.663086-160.914286-7.314286C351.840549 91.296914 262.629669 54.4768 244.297143 52.662857z" fill="#000000" p-id="2607"></path><path d="M146.888411 189.284937c-17.027657 83.280457-18.203794 187.195977-12.478171 261.819246l0.400823 5.213623-2.995932 4.283245c-55.840183 79.907109-64.289646 148.430263-55.863588 214.861532 7.715109 60.810971 43.394194 107.280091 86.460708 142.347703 43.116251 35.108571 92.52864 57.847223 125.179612 71.150445 52.908617 21.553737 144.661943 43.06944 246.310034 41.937189 101.586651-1.129326 211.657874-24.848091 302.606629-92.20096 118.037943-87.411566 133.029303-272.284526 44.652251-377.042651l-3.750766-4.447086 0.32768-5.810469c10.933394-193.246354-11.992503-294.557989-42.054217-345.363017-14.798263-25.011931-31.038903-37.31456-45.538743-42.958263-14.634423-5.696366-28.865097-5.143406-40.36608-2.118217-6.556526 1.726171-17.87904 8.572343-32.981577 21.152914-14.52032 12.10368-30.880914 28.072229-47.259063 45.693806-32.867474 35.360183-64.667063 76.127086-80.948662 103.412297l-5.79584 9.713372-10.860252-3.165623c-22.510446-6.562377-51.597897-9.575863-79.693531-10.052754-28.063451-0.473966-53.909211 1.600366-69.640777 4.622628l-10.757852 2.065554-5.008823-9.742628c-34.965211-67.9936-73.198446-109.75232-104.401188-134.603337-31.741074-25.284023-55.442286-32.519314-61.036252-33.072275-22.7328-2.246949-41.352046 8.426057-57.355703 31.626972-16.345966 23.698286-28.61056 58.891703-37.15072 100.676754z m13.06624-117.291886c19.982629-28.964571 47.806171-47.733029 84.319086-44.128548 13.33248 1.316571 42.279497 12.138789 76.384549 39.304046 33.092754 26.35776 71.811657 68.666514 107.23328 134.670628 17.63328-2.434194 40.763977-3.7888 64.842605-3.382126 25.401051 0.43008 52.779886 2.832091 76.565943 8.390949 18.601691-28.818286 48.5376-66.39616 78.80704-98.962286 16.893074-18.171611 34.172343-35.093943 49.962423-48.25088 15.210789-12.674194 30.872137-23.446674 44.266057-26.969234 16.293303-4.289097 36.98688-5.198994 58.423589 3.145143 21.56544 8.3968 42.539886 25.638034 60.105874 55.325257 34.327406 58.016914 56.650606 165.1712 46.398903 356.196937 94.690743 117.865326 77.063314 318.303086-53.341623 414.875063-97.435063 72.153966-214.17984 96.770926-319.695726 97.944137-105.448594 1.173211-201.07264-21.038811-257.673508-44.096366-33.598903-13.689417-86.153509-37.727086-132.613852-75.556571-46.51008-37.873371-88.02304-90.512823-97.010834-161.356069-9.087269-71.621486 0.146286-146.285714 57.929143-230.985142-5.412571-75.85792-3.987749-179.85536 13.364663-264.730332 8.844434-43.268389 22.09792-82.96448 41.732388-111.434606z" fill="#000000" p-id="2608"></path><path d="M380.342857 557.348571c16.091429-9.534903 95.085714-35.108571 114.102857-238.445714 2.208914-15.158126 33.95584-14.874331 35.108572 0 16.091429 207.725714 67.291429 222.84288 102.4 238.445714 13.165714 5.851429 33.645714 9.210149 57.051428 7.314286 54.125714-4.388571 122.88-98.011429 206.262857-24.868571 31.451429 27.589486 49.236846 161.75104-32.182857 266.24-87.771429 112.642926-276.48 125.805714-345.234285 125.805714-136.115931 0-258.925714-38.034286-311.588572-80.457143S61.053806 677.651017 102.4 588.068571c52.662857-114.102857 171.154286-33.645714 198.948571-27.794285 41.63584 8.76544 62.902857 6.609189 78.994286-2.925715z" fill="#FFFFFF" p-id="2609"></path><path d="M613.481326 682.390674c-34.257189 23.522743-144.378149 27.808914-190.741943 27.577783l106.929006-37.639314 83.812937 10.061531z" fill="#480D21" p-id="2610"></path><path d="M529.013029 666.35776l100.574354 12.074423-12.794149 8.782994c-9.493943 6.521417-23.680731 11.392731-39.716571 15.140572-16.187977 3.780023-34.874514 6.544823-53.809737 8.551862-37.879223 4.011154-77.224229 5.029303-100.5568 4.912275l-1.913417-11.369326 108.21632-38.0928z m1.31072 11.942766l-71.70048 25.240137c19.368229-0.664137 41.653394-1.969006 63.411931-4.271543 18.671909-1.977783 36.834743-4.681143 52.379063-8.311954 6.73792-1.574034 12.873143-3.29728 18.285714-5.166812l-62.376228-7.489828z" fill="#000000" p-id="2611"></path><path d="M539.794286 743.131429c-6.152777-26.626926-21.015406-49.842469-41.006812-61.457555L608.548571 675.84l20.48 1.462857c22.99904 9.795291 36.27008 60.35456 26.331429 119.954286-9.938651 59.599726-76.908251 50.802103-97.417509 17.688868-20.512183-33.11616-12.220709-46.158994-18.148205-71.814582z" fill="#FF8F8E" p-id="2612"></path><path d="M608.601234 669.976869l21.819977 1.559405 0.90112 0.383269c7.226514 3.077851 13.192046 9.125303 17.908298 16.817006 4.736731 7.723886 8.43776 17.454811 11.015314 28.543268 5.152183 22.182766 5.95968 50.512457 0.886491 80.939886-2.671177 16.012434-9.27744 27.931794-18.434925 35.992137-9.131154 8.039863-20.389303 11.884251-31.76448 12.498651-22.437303 1.214171-46.457417-10.105417-57.964252-28.683702-10.702263-17.276343-14.04928-29.63456-15.38048-41.109212-0.444709-3.820983-0.669989-7.63904-0.886491-11.316663-0.093623-1.585737-0.18432-3.148069-0.292572-4.66944-0.365714-5.193143-0.930377-10.482834-2.317165-16.483474-5.895314-25.512229-20.014811-47.121554-38.244938-57.715566l-16.969142-9.859657 129.723245-6.895908z m-0.105325 11.726262l-93.298103 4.959086c14.719269 13.686491 25.301577 33.531611 30.298697 55.15264 1.57696 6.828617 2.200137 12.788297 2.586331 18.291566 0.128731 1.819794 0.231131 3.537189 0.32768 5.20192 0.2048 3.505006 0.397897 6.775954 0.801646 10.257554 1.132251 9.739703 3.894126 20.45952 13.704046 36.299337 9.005349 14.534949 28.721737 24.169326 47.384868 23.159955 9.172114-0.494446 17.802971-3.557669 24.663772-9.596343 6.831543-6.015269 12.326034-15.348297 14.62272-29.134263 4.865463-29.169371 4.005303-55.922103-0.743132-76.366994-2.372754-10.225371-5.681737-18.69824-9.590491-25.070446-3.674697-5.994789-7.691703-9.833326-11.691154-11.793554l-19.06688-1.360458z" fill="#DF413F" p-id="2613"></path><path d="M538.331429 686.08c1.41312-0.169691 3.136366-0.172617 5.090742 0h46.109258c4.388571 24.379977 12.580571 72.557714 4.388571 40.96-7.241143-27.93472-35.597166-39.631726-50.497829-40.96H538.331429z" fill="#D74D4B" p-id="2614"></path><path d="M512.602697 627.381394c33.604754 0 60.84608-13.519726 60.84608-35.175863 0-21.656137-27.241326-39.210423-60.84608-39.210422-33.601829 0-60.843154 17.554286-60.843154 39.210422 0 21.656137 27.241326 35.175863 60.843154 35.175863z m-138.877806 40.998035a11.699931 11.699931 0 1 0-19.821714 12.443062c5.778286 9.207223 18.253531 22.408046 36.053577 29.96224 18.39104 7.805806 41.972297 9.324251 68.195475-4.774765 40.184686-21.609326 74.099566-23.335497 110.747062-17.132983 19.593509 3.314834 42.299977-0.708023 60.7232-10.201966 18.30912-9.435429 34.719451-25.626331 37.092206-48.081188a11.702857 11.702857 0 1 0-23.276983-2.4576c-1.2288 11.626789-10.064457 22.276389-24.537965 29.734034-14.359406 7.399131-31.963429 10.318994-46.094629 7.928686-40.644023-6.878354-80.050469-4.973714-125.738423 19.596434-19.654949 10.56768-35.775634 9.017051-47.96416 3.844388-12.77952-5.424274-21.764389-15.105463-25.377646-20.860342z" fill="#000000" p-id="2615"></path><path d="M651.53024 551.002697c-28.028343-4.962011-56.281966-34.742857-52.46976-56.287817 3.815131-21.54496 38.253714-26.697143 66.282057-21.735131 28.025417 4.959086 54.561646 14.818743 50.74944 36.363702-3.815131 21.54496-36.533394 46.621257-64.561737 41.659246z m-297.322789 1.193692c28.028343-4.962011 56.281966-34.742857 52.466835-56.287818-3.812206-21.54496-38.250789-26.697143-66.279132-21.738057-28.028343 4.962011-54.564571 14.818743-50.74944 36.366629 3.815131 21.54496 36.533394 46.621257 64.561737 41.659246z" fill="#FFFFFF" p-id="2616"></path><path d="M492.649326 573.715017c0.816274 2.483931-3.408457 6.10304-9.435429 8.0896-6.029897 1.983634-11.579977 1.579886-12.396251-0.90112-0.8192-2.483931 3.405531-6.105966 9.435428-8.0896 6.029897-1.983634 11.579977-1.579886 12.396252 0.90112z" fill="#FFFFFF" opacity=".6" p-id="2617"></path><path d="M511.30368 529.583543c-22.95808-0.447634-45.246171 4.28032-58.979474 12.960914a8.777143 8.777143 0 1 1-9.37984-14.839223c17.718126-11.199634 43.856457-16.155794 68.701623-15.673051 24.769097 0.482743 50.570971 6.419017 67.191954 19.377006a8.777143 8.777143 0 0 1-10.795886 13.84448c-12.331886-9.616823-33.707154-15.222491-56.738377-15.670126z" fill="#000000" opacity=".1" p-id="2618"></path><path d="M626.102857 517.851429a17.554286 17.554286 0 1 1 0-35.108572 17.554286 17.554286 0 0 1 0 35.108572z m-248.685714 0a17.554286 17.554286 0 1 0 0-35.108572 17.554286 17.554286 0 0 0 0 35.108572z" fill="#4A95FF" p-id="2619"></path><path d="M879.668663 957.004069c20.594103 9.710446 61.905189 18.467109 62.399634-24.1664 0.617326-53.291886-24.713509-154.299246-132.83328-126.414263-108.122697 27.884983-119.860663 110.922606-114.919131 126.414263 4.944457 15.491657 15.447771 37.179977 50.044343 24.1664 8.443611 20.655543 34.353737 52.302994 70.433645 13.633828 13.800594 12.188526 46.091703 26.5216 64.874789-13.633828z m-679.748754 5.851428c-20.594103 9.710446-61.908114 18.467109-62.399635-24.1664-0.617326-53.291886 24.713509-154.299246 132.83328-126.414263 108.122697 27.884983 119.860663 110.922606 114.919132 126.414263-4.944457 15.491657-15.447771 37.179977-50.044343 24.1664-8.443611 20.655543-34.353737 52.302994-70.433646 13.633829-13.797669 12.188526-46.091703 26.5216-64.874788-13.633829z" fill="#FFFFFF" p-id="2620"></path><path d="M939.165989 935.821897c0.318903-27.408091-6.193737-66.053851-25.424458-93.625783-9.417874-13.502171-21.670766-24.069851-37.56032-29.821805-15.910034-5.760731-36.744046-7.159223-64.093622-0.125806-55.56224 14.286263-85.117806 42.247314-100.398812 67.443566-7.738514 12.75904-11.942766 25.017783-13.920548 34.79552-0.988891 4.89472-1.39264 9.043383-1.442378 12.203154-0.049737 3.177326 0.272091 4.66944 0.3072 4.830354v0.014629c2.586331 8.077897 5.702217 14.309669 10.093715 17.627428 3.13344 2.366903 9.827474 5.412571 25.597074-0.503223l13.288594-4.982491 5.383315 13.130606c4.011154 9.783589 11.495131 20.087954 19.8656 24.011337 3.662994 1.714469 7.59808 2.29376 12.317257 0.968411 5.020526-1.407269 11.998354-5.286766 20.670171-14.552503l9.698743-10.36288 10.6496 9.37984c6.044526 5.3248 15.386331 10.266331 23.885531 10.327772a19.101989 19.101989 0 0 0 11.430766-3.548892c3.856091-2.688731 8.434834-7.671223 12.756114-16.887222l6.217143-13.25056 13.25056 6.22592c10.187337 4.789394 23.990857 8.484571 34.020206 6.998308 4.581669-0.678766 7.375726-2.270354 9.172114-4.376868 1.831497-2.153326 4.128183-6.61504 4.236435-15.918812z m-134.363429-151.908937c31.80544-8.177371 58.79808-7.20896 81.340709 0.950857 22.557257 8.168594 39.377189 23.08096 51.592045 40.594286 24.034743 34.453211 31.044754 79.9744 30.684892 110.706103-0.160914 13.952731-3.718583 25.737509-11.217189 34.543908-7.53664 8.850286-17.554286 12.928731-27.15648 14.350629-12.934583 1.916343-26.723474-0.687543-38.060617-4.426606-4.599223 6.831543-9.859657 12.299703-15.746194 16.40448a48.37376 48.37376 0 0 1-28.367726 8.800549c-12.141714-0.087771-23.288686-4.411977-32.042423-9.654857-8.0896 6.805211-16.334263 11.416137-24.748617 13.777188-11.986651 3.361646-23.118994 1.808091-32.633417-2.647771-12.843886-6.018194-22.285166-17.036434-28.534492-27.487086-16.375223 3.507931-30.055863 0.810423-40.81664-7.314286-12.168046-9.189669-17.504549-23.238949-20.327862-32.059977-2.486857-7.773623-2.141623-19.549623 0.321828-31.755703 2.609737-12.911177 7.995977-28.370651 17.580617-44.17536 19.365303-31.925394 55.386697-64.47104 118.131566-80.606354zM140.445989 941.673326c-0.321829-27.408091 6.193737-66.053851 25.424457-93.625783 9.4208-13.502171 21.670766-24.069851 37.56032-29.821806 15.907109-5.760731 36.744046-7.159223 64.093623-0.125806 55.56224 14.286263 85.11488 42.247314 100.398811 67.443566 7.738514 12.75904 11.942766 25.017783 13.917623 34.79552 0.988891 4.89472 1.395566 9.043383 1.445303 12.203154 0.049737 3.177326-0.272091 4.66944-0.3072 4.830355l-0.002926 0.014628c-2.583406 8.077897-5.699291 14.309669-10.090789 17.627429-3.13344 2.366903-9.827474 5.412571-25.597074-0.503223l-13.288594-4.982491-5.383314 13.130605c-4.011154 9.783589-11.498057 20.087954-19.8656 24.011337-3.66592 1.714469-7.601006 2.29376-12.320183 0.968412-5.0176-1.407269-11.995429-5.286766-20.667246-14.552503l-9.698743-10.36288-10.6496 9.37984c-6.044526 5.3248-15.389257 10.266331-23.885531 10.327771a19.090286 19.090286 0 0 1-11.430766-3.548891c-3.856091-2.688731-8.434834-7.671223-12.756114-16.887223l-6.220069-13.25056-13.247634 6.22592c-10.187337 4.789394-23.990857 8.484571-34.020206 6.998309-4.581669-0.678766-7.375726-2.270354-9.172114-4.376869-1.831497-2.153326-4.128183-6.61504-4.236434-15.918811z m134.363428-151.908937c-31.802514-8.177371-58.79808-7.20896-81.340708 0.950857-22.557257 8.168594-39.380114 23.08096-51.592046 40.594285-24.034743 34.453211-31.041829 79.9744-30.687817 110.706103 0.16384 13.952731 3.718583 25.737509 11.220114 34.543909 7.53664 8.850286 17.554286 12.928731 27.15648 14.350628 12.931657 1.916343 26.723474-0.687543 38.063543-4.426605 4.596297 6.831543 9.856731 12.299703 15.743268 16.40448a48.362057 48.362057 0 0 0 28.367726 8.800548c12.141714-0.087771 23.288686-4.411977 32.042423-9.654857 8.0896 6.805211 16.334263 11.416137 24.745691 13.777189 11.989577 3.361646 23.12192 1.808091 32.636343-2.647772 12.843886-6.018194 22.28224-17.036434 28.534492-27.487085 16.372297 3.507931 30.055863 0.810423 40.81664-7.314286 12.168046-9.189669 17.504549-23.238949 20.327863-32.059977 2.486857-7.773623 2.141623-19.549623-0.324755-31.755703-2.606811-12.911177-7.993051-28.370651-17.580617-44.17536-19.362377-31.925394-55.383771-64.47104-118.12864-80.606354z" fill="#000000" p-id="2621"></path><path d="M587.73504 461.390994c-12.744411-11.20256-9.962057-35.196343 6.211291-53.590308 16.173349-18.396891 39.614171-24.22784 52.355658-13.02528 12.741486 11.20256 9.959131 35.196343-6.214218 53.590308-16.173349 18.396891-39.611246 24.22784-52.352731 13.02528z m-157.584823 7.548343c13.329554-10.494537 11.852069-34.605349-3.300206-53.847771-15.1552-19.245349-38.244937-26.33728-51.574491-15.842743-13.329554 10.497463-11.852069 34.605349 3.300206 53.850697 15.1552 19.245349 38.244937 26.33728 51.574491 15.839817z" fill="#FFFFFF" opacity=".8" p-id="2622"></path><path d="M834.943269 362.876343c21.939931-0.394971 4.359314-235.824274-67.057372-231.429852-11.699931 1.506743-97.964617 85.149989-93.944686 107.534629 2.29376 12.773669 38.888594 37.291154 78.736823 63.988297 29.991497 20.093806 61.82912 41.425189 82.265235 59.906926z m-641.6384 3.894126c-21.931154 0.766537-16.819931-235.265463 54.728411-234.653989 11.764297 0.889417 102.329783 79.854446 99.500617 102.42048-1.61792 12.876069-36.864 39.292343-75.246446 68.060891-28.888503 21.653211-59.552914 44.634697-78.982582 64.172618z" fill="#FFFFFF" p-id="2623"></path></svg>