<?xml version="1.0" standalone="no"?><!DOCTYPE svg PUBLIC "-//W3C//DTD SVG 1.1//EN" "http://www.w3.org/Graphics/SVG/1.1/DTD/svg11.dtd"><svg t="1744968587749" class="icon" viewBox="0 0 1024 1024" version="1.1" xmlns="http://www.w3.org/2000/svg" p-id="2967" xmlns:xlink="http://www.w3.org/1999/xlink" width="32" height="32"><path d="M234.993371 918.764983s156.768549-7.835063 260.953235-8.788846c115.758811-1.059109 300.163657 8.788846 300.163657 8.788846l191.318308 21.632731s-298.896823 17.712274-491.481965 17.577692C307.053714 957.843749 32.182857 940.397714 32.182857 940.397714l202.810514-21.632731z" fill="#000000" opacity=".5" p-id="2968"></path><path d="M142.289189 78.82752c4.555337-6.729143 13.02528-15.68768 25.781394-14.336 10.491611 1.114697 27.390537 6.038674 46.650514 12.603977 19.766126 6.740846 43.476114 15.731566 68.312503 25.755063 44.696137 18.039954 93.561417 39.640503 130.325943 57.873554A533.705874 533.705874 0 0 1 509.074286 152.137143c35.064686 0 69.210697 3.3792 102.022583 9.777737 35.989211-17.855634 82.727497-38.654537 125.597988-56.118126 24.608183-10.026423 48.101669-19.017143 67.689326-25.757988 19.078583-6.565303 35.845851-11.498057 46.273097-12.61568 12.501577-1.337051 21.024183 7.267474 25.719954 13.838628 5.12 7.162149 9.371063 16.828709 13.039909 27.4432 7.422537 21.480594 13.80352 50.936686 19.213166 82.970332 10.8544 64.3072 18.230126 141.80352 21.714651 193.536 0.084846 1.29024 0.002926 2.548297-0.231131 3.759543C954.745417 437.39136 968.411429 490.879269 968.411429 547.108571c0 218.135406-205.651383 394.971429-459.337143 394.971429S49.737143 765.243977 49.737143 547.108571c0-60.840229 15.997806-118.465097 44.573257-169.940114 3.569371-51.311177 9.37984-124.442331 18.285714-185.891108 4.713326-32.554423 10.395063-62.548846 17.299749-84.436115 3.408457-10.810514 7.431314-20.6848 12.393326-28.013714z m754.758217 256.743131c-3.996526-44.061257-9.80992-94.851657-17.267566-139.027017-5.336503-31.612343-11.401509-59.143314-18.013623-78.280411-3.349943-9.689966-6.509714-16.237714-9.189668-19.98848a20.84864 20.84864 0 0 0-1.114698-1.439452c-7.285029 1.214171-20.155246 4.880091-37.557394 10.866103-18.908891 6.509714-41.869897 15.289783-66.17088 25.1904-30.485943 12.419657-62.83264 26.498194-91.659703 39.906743 100.343223 29.12256 185.162606 87.2448 240.973532 162.772114z m-308.068937-147.924114a14.628571 14.628571 0 0 0 20.450742 7.90528 845.4144 845.4144 0 0 1 5.833875-2.993006C803.831223 233.135543 939.154286 379.242789 939.154286 547.108571c0 197.988937-188.25216 365.714286-430.08 365.714286S78.994286 745.097509 78.994286 547.108571c0-51.735406 12.852663-101.402331 36.155977-146.551954a14.613943 14.613943 0 0 0 7.694628-11.907657l0.169692-2.472229c55.442286-95.916617 158.983314-169.261349 285.997348-194.896457l2.68288 1.37216a14.628571 14.628571 0 0 0 19.08736-5.257508A509.258606 509.258606 0 0 1 509.074286 181.394286c27.387611 0 54.08768 2.1504 79.904183 6.255177zM272.082651 129.983634c31.808366 12.838034 65.626697 27.451977 95.451429 41.264275-99.00032 27.542674-183.290149 83.204389-240.133851 156.031268 3.452343-42.320457 8.080823-89.924754 14.148754-131.803428 4.663589-32.188709 10.082011-60.275566 16.249417-79.828115 3.124663-9.909394 6.129371-16.594651 8.718629-20.412708 0.362789-0.541257 0.678766-0.965486 0.94208-1.299017 7.402057 1.237577 20.362971 4.903497 37.820708 10.8544 19.093211 6.509714 42.27072 15.292709 66.802834 25.193325zM168.46848 92.865097a0.722651 0.722651 0 0 1-0.193097 0.155063c0.128731-0.12288 0.193097-0.16384 0.193097-0.155063z m682.027886 3.028114c0 0.008777 0.064366 0.064366 0.187245 0.137509-0.12288-0.108251-0.187246-0.146286-0.187245-0.137509z" fill="#174066" p-id="2969"></path><path d="M939.154286 547.108571c0 203.594606-192.55296 368.64-430.08 368.64S78.994286 750.703177 78.994286 547.108571 271.547246 178.468571 509.074286 178.468571s430.08 165.045394 430.08 368.64z" fill="#F7F5F5" p-id="2970"></path><path d="M169.691429 92.16c29.257143-8.777143 187.193051 66.99008 260.388571 105.325714-231.084617 63.253943-248.685714 153.064594-311.588571 208.65024C131.657143 301.348571 136.902949 101.993326 169.691429 92.16zM849.92 98.011429c-34.03776 3.662994-185.715566 61.314194-258.925714 99.474285 231.125577 62.961371 245.76 184.32 313.051428 225.28-7.314286-99.474286-20.087954-328.41728-54.125714-324.754285z" fill="#F7F5F3" p-id="2971"></path><path d="M174.963566 140.434286c34.175269 20.140617 117.332846 72.197851 100.837668 82.306194-48.888686 29.965166-117.543497 86.884937-128.936228 101.235566-11.392731 14.350629 6.834469-174.477897 28.09856-183.54176z m671.147154 0c-34.175269 20.140617-117.332846 72.197851-100.837669 82.306194 48.888686 29.965166 117.543497 86.884937 128.936229 101.235566 11.392731 14.350629-6.834469-174.477897-28.09856-183.54176z" fill="#FFE2DB" p-id="2972"></path><path d="M374.491429 895.786423c0 11.0592-2.884754 18.733349-7.176778 24.640366-4.514377 6.217143-11.881326 12.220709-23.309165 17.451885C320.415451 948.683337 284.914834 953.782857 241.371429 953.782857s-79.044023-5.09952-102.634058-15.904183c-11.42784-5.231177-18.794789-11.234743-23.309165-17.451885-4.292023-5.907017-7.176777-13.581166-7.176777-24.640366 0-22.870309 12.744411-49.122743 37.443291-70.489234C170.060069 804.220343 203.945691 789.942857 241.371429 789.942857c37.425737 0 71.31136 14.277486 95.676708 35.354332C361.747017 846.66368 374.491429 872.916114 374.491429 895.786423z m29.257142 0C403.748571 962.630217 331.050423 983.04 241.371429 983.04S78.994286 962.630217 78.994286 895.786423C78.994286 828.945554 151.692434 760.685714 241.371429 760.685714s162.377143 68.25984 162.377142 135.100709z m500.297143 0c0 11.0592-2.884754 18.733349-7.176777 24.640366-4.514377 6.217143-11.881326 12.220709-23.309166 17.451885-23.590034 10.804663-59.090651 15.904183-102.634057 15.904183s-79.044023-5.09952-102.634057-15.904183c-11.42784-5.231177-18.794789-11.234743-23.309166-17.451885-4.292023-5.907017-7.176777-13.581166-7.176777-24.640366 0-22.870309 12.744411-49.122743 37.443292-70.489234C699.614354 804.220343 733.499977 789.942857 770.925714 789.942857c37.425737 0 71.31136 14.277486 95.676709 35.354332C891.301303 846.66368 904.045714 872.916114 904.045714 895.786423z m29.257143 0C933.302857 962.630217 860.604709 983.04 770.925714 983.04s-162.377143-20.409783-162.377143-87.253577C608.548571 828.945554 681.24672 760.685714 770.925714 760.685714s162.377143 68.25984 162.377143 135.100709z" fill="#174066" p-id="2973"></path><path d="M241.371429 962.56c75.135269 0 136.045714-16.114834 136.045714-68.883017C377.417143 840.905874 316.506697 787.017143 241.371429 787.017143S105.325714 840.905874 105.325714 893.676983C105.325714 946.445166 166.23616 962.56 241.371429 962.56z m529.554285 0c75.135269 0 136.045714-16.114834 136.045715-68.883017C906.971429 840.905874 846.060983 787.017143 770.925714 787.017143S634.88 840.905874 634.88 893.676983C634.88 946.445166 695.790446 962.56 770.925714 962.56z" fill="#F7F5F5" p-id="2974"></path><path d="M285.075749 876.716617a8.777143 8.777143 0 0 0-17.124206-3.853166c-2.363977 10.500389-4.251063 27.118446-2.23232 43.382492 1.980709 15.989029 8.04864 33.83296 23.727543 43.537554a8.777143 8.777143 0 1 0 9.242331-14.924068c-8.897097-5.506194-13.800594-16.676571-15.550171-30.772663-1.714469-13.824-0.087771-28.3648 1.936823-37.370149z m-98.075795 11.969097a8.777143 8.777143 0 1 0-16.9984-4.385645c-2.153326 8.349989-4.049189 21.714651-2.878903 35.380662 1.158583 13.499246 5.459383 28.885577 17.302675 39.245532a8.777143 8.777143 0 1 0 11.556571-13.2096c-6.88128-6.02112-10.380434-15.991954-11.369326-27.533897-0.974263-11.372251 0.643657-22.729874 2.387383-29.497052z m541.71648-9.043383a8.777143 8.777143 0 0 1 17.127132-3.853165c2.363977 10.500389 4.248137 27.118446 2.23232 43.382491-1.983634 15.989029-8.04864 33.83296-23.730469 43.537554a8.777143 8.777143 0 1 1-9.239406-14.924068c8.897097-5.506194 13.800594-16.676571 15.550172-30.772663 1.711543-13.824 0.087771-28.3648-1.939749-37.370149z m98.075795 11.969098a8.777143 8.777143 0 0 1 16.9984-4.385646c2.156251 8.349989 4.052114 21.714651 2.878902 35.380663-1.155657 13.499246-5.459383 28.885577-17.299748 39.245531a8.777143 8.777143 0 1 1-11.559497-13.2096c6.88128-6.02112 10.380434-15.991954 11.369325-27.533897 0.974263-11.372251-0.640731-22.729874-2.387382-29.497051zM663.671954 608.586606c35.684937-5.757806 90.95168-14.268709 140.767817-21.097326 24.906606-3.414309 48.473234-6.407314 67.554743-8.426057 18.973257-2.00704 33.797851-3.083703 41.036069-2.568777a2.925714 2.925714 0 1 1-0.415452 5.8368c-6.623817-0.47104-20.898377 0.529554-40.003291 2.551223-18.996663 2.009966-42.496 4.994194-67.376274 8.405577-49.757623 6.816914-104.974629 15.321966-140.633235 21.07392a2.925714 2.925714 0 1 1-0.930377-5.77536z m-309.177783 14.631497c-34.429806-5.757806-87.745097-14.271634-135.805805-21.097326-24.028891-3.414309-46.764617-6.41024-65.176137-8.428983-18.300343-2.00704-32.621714-3.083703-39.625875-2.568777a2.925714 2.925714 0 0 0 0.433006 5.8368c6.366354-0.47104 20.117211 0.526629 38.555063 2.548297 18.323749 2.009966 40.989257 4.994194 64.991817 8.405577 47.999269 6.81984 101.264823 15.321966 135.662446 21.07392a2.925714 2.925714 0 1 0 0.965485-5.769508z m-105.068251 31.565531c-48.060709 6.825691-101.376 15.33952-135.805806 21.097326a2.925714 2.925714 0 1 0 0.965486 5.769509c34.397623-5.751954 87.663177-14.25408 135.665371-21.07392 23.999634-3.411383 46.665143-6.395611 64.988892-8.405578 18.437851-2.021669 32.188709-3.019337 38.555063-2.548297a2.925714 2.925714 0 1 0 0.43008-5.8368c-7.00416-0.514926-21.322606 0.561737-39.622949 2.568777-18.41152 2.018743-41.147246 5.014674-65.176137 8.428983z m663.862126 9.391543c-35.687863-5.757806-90.95168-14.268709-140.767817-21.097326-24.906606-3.414309-48.473234-6.407314-67.554743-8.426057-18.973257-2.00704-33.797851-3.083703-41.036069-2.568777a2.925714 2.925714 0 1 0 0.415452 5.8368c6.620891-0.47104 20.898377 0.529554 40.003291 2.551223 18.996663 2.009966 42.496 4.994194 67.376274 8.405577 49.757623 6.816914 104.974629 15.321966 140.633235 21.07392a2.925714 2.925714 0 1 0 0.930377-5.77536zM524.141714 576.3072c18.259383-0.272091 31.744-1.840274 31.744-10.69056 0-10.503314-18.993737-27.285211-42.422857-27.285211s-42.422857 16.781897-42.422857 27.285211c0 8.853211 13.490469 10.418469 31.758629 10.69056 0 0.295497 0.011703 0.59392 0.04096 0.892343 0.406674 4.274469 0.002926 11.331291-2.065555 19.022994-2.059703 7.65952-5.608594 15.351223-11.012388 21.369417-5.280914 5.880686-12.478171 10.357029-22.516297 11.697006-10.210743 1.363383-24.025966-0.435931-42.43456-8.461166a8.774217 8.774217 0 1 0-7.015863 16.091429c20.35712 8.873691 37.466697 11.679451 51.776365 9.76896 14.482286-1.933897 25.3952-8.619154 33.250743-17.369966 4.534857-5.049783 7.995977-10.716891 10.596937-16.457143 2.603886 5.629074 6.059154 11.111863 10.561829 15.99488 8.004754 8.68352 19.145874 15.228343 33.982171 17.214903 14.660754 1.963154 32.408137-0.585143 53.809738-9.034606a8.777143 8.777143 0 0 0-6.445349-16.328411c-19.5584 7.72096-34.207451 9.414949-45.03552 7.963794-10.6496-1.424823-18.089691-5.947977-23.405714-11.71456-11.103086-12.039314-13.70112-30.450834-12.788297-39.7312 0.032183-0.3072 0.043886-0.6144 0.043885-0.918674z" fill="#174066" p-id="2975"></path><path d="M394.971429 409.6c12.925806 0 23.405714-8.513829 23.405714-19.017143s-10.479909-19.017143-23.405714-19.017143-23.405714 8.513829-23.405715 19.017143 10.479909 19.017143 23.405715 19.017143z m222.354285 0c12.925806 0 23.405714-8.513829 23.405715-19.017143s-10.479909-19.017143-23.405715-19.017143-23.405714 8.513829-23.405714 19.017143 10.479909 19.017143 23.405714 19.017143z" fill="#D9D9D9" p-id="2976"></path><path d="M244.946651 496.128c9.578789-107.903269 155.963977-114.731886 167.962332 0 11.910583 113.877577-175.809097 88.41216-167.962332 0z m349.976869 0c9.575863-107.903269 155.961051-114.731886 167.962331 0 11.910583 113.877577-175.809097 88.41216-167.962331 0z" fill="#A0D2F4" p-id="2977"></path><path d="M287.70304 520.23296c-0.002926-84.319086 119.331109-110.296503 123.155017-11.697006 2.899383 74.737371-119.266743 77.86496-123.155017 11.697006z m349.976869 0c-0.005851-84.319086 119.331109-110.296503 123.155017-11.697006 2.899383 74.737371-119.266743 77.86496-123.155017 11.697006z" fill="#0D213A" p-id="2978"></path><path d="M392.311954 539.267657a10.327771 10.327771 0 0 0 7.776549-12.36992 10.330697 10.330697 0 1 0-7.776549 12.36992z m349.976869 0a10.333623 10.333623 0 1 0-4.593372-20.146468 10.333623 10.333623 0 0 0 4.593372 20.146468z" fill="#F7F5F3" p-id="2979"></path></svg>