<?xml version="1.0" standalone="no"?><!DOCTYPE svg PUBLIC "-//W3C//DTD SVG 1.1//EN" "http://www.w3.org/Graphics/SVG/1.1/DTD/svg11.dtd"><svg t="1744968598089" class="icon" viewBox="0 0 1024 1024" version="1.1" xmlns="http://www.w3.org/2000/svg" p-id="3322" xmlns:xlink="http://www.w3.org/1999/xlink" width="32" height="32"><path d="M226.950583 926.620526s164.08576-8.197851 273.135908-9.198446c121.162606-1.108846 314.171977 9.198446 314.171978 9.198446l200.25344 22.645028s-312.849554 18.537326-514.425418 18.396892c-197.710994-0.137509-485.414034-18.396891-485.414034-18.396892l212.278126-22.645028z" fill="#000000" opacity=".5" p-id="3323"></path><path d="M327.867246 119.64416c25.134811 8.62208 47.621851 16.319634 65.378011 21.474743 38.335634-12.77952 78.698789-19.979703 120.580389-19.979703 41.311086 0 81.112503 6.969051 118.918583 19.368229 17.55136-4.909349 40.211017-12.440137 65.732022-20.921783l3.314835-1.102995c29.77792-9.897691 62.879451-20.836937 94.676114-29.734034 31.647451-8.856137 62.83264-15.930514 88.669623-17.77664 12.911177-0.9216 25.245989-0.602697 35.971657 1.854903 10.722743 2.451749 21.138286 7.361097 28.218514 16.653166 12.460617 16.354743 16.62976 38.888594 17.068617 62.385005 0.45056 23.885531-2.940343 51.243886-7.867245 79.33952-4.575817 26.073966-10.596937 53.417691-16.422035 79.872v0.002926l-1.39264 6.325394c-5.491566 24.979749-10.681783 48.961829-14.362331 70.726218 40.541623 66.372754 65.278537 134.217143 69.784137 189.290788 25.635109 313.320594-209.127131 349.10208-474.653257 349.10208-265.529051 0-517.245806-37.29408-491.49952-349.10208 4.289097-51.934354 27.048229-115.726629 64.365714-178.971794-2.679954-16.95744-6.094263-35.9424-9.684114-55.86944v-0.002926c-6.404389-35.597166-13.350034-74.204891-17.6128-109.655771-3.493303-29.046491-5.383314-57.244526-3.80928-81.709349 1.550629-24.040594 6.5536-46.747063 18.826971-62.856046 7.089006-9.303771 17.495771-14.178011 28.212663-16.559542 10.699337-2.37568 22.972709-2.574629 35.787337-1.521372 25.646811 2.112366 56.562834 9.537829 87.92064 18.724572 31.21152 9.145783 63.71328 20.29568 93.04064 30.357211l0.836755 0.28672zM895.786423 394.386286a14.6432 14.6432 0 0 0 8.774217 14.25408c36.656274 61.416594 58.461623 122.841966 62.417189 171.168914 6.117669 74.798811-3.537189 130.284983-23.271132 171.777463-19.552549 41.10336-50.020937 70.661851-89.664366 92.168777-81.361189 44.140251-199.323063 53.51424-332.560091 53.51424-133.029303 0-255.625509-9.689966-341.480594-54.324663-41.992777-21.83168-74.4448-51.679817-95.35488-92.71296-21.041737-41.290606-31.62112-96.326217-25.506377-170.399451 6.199589-75.067977 56.764709-183.281371 139.854994-273.288046 54.587977-59.131611 121.194789-108.2368 195.218286-134.784731l1.08544 0.28672a14.634423 14.634423 0 0 0 15.7696-5.89824c33.019611-10.143451 67.39968-15.74912 102.756937-15.74912 36.793783 0 72.493349 6.035749 106.668617 16.91648a14.640274 14.640274 0 0 0 10.839771 3.627885c74.684709 26.25536 141.736229 75.500983 196.531932 135.001235a627.475017 627.475017 0 0 1 67.920457 88.441417z m7.425463-41.495406c2.767726-13.642606 5.828023-27.674331 8.92928-41.764571l0.678765-3.089555 0.684618-3.118811c5.85728-26.594743 11.743817-53.344549 16.205531-78.76608 4.818651-27.469531 7.829211-52.657006 7.43424-73.736777-0.400823-21.465966-4.32128-36.319817-11.091383-45.202286-1.489189-1.957303-4.663589-4.306651-11.474651-5.866057-6.805211-1.55648-15.942217-2.004114-27.355429-1.18784-22.81472 1.626697-51.700297 8.045714-82.870857 16.764343-31.018423 8.68352-63.479223 19.406263-93.333211 29.32736l-3.981898 1.322423c-10.553051 3.510857-20.798903 6.913463-30.49472 10.064457 92.458423 42.062994 170.674469 115.694446 226.669715 195.253394zM318.373303 147.318491c10.980206 3.765394 21.670766 7.431314 31.811291 10.825143-95.460206 43.7248-175.899794 121.01632-232.374857 203.465875-1.503817-8.531383-3.074926-17.232457-4.666514-26.044709v-0.002926c-6.258103-34.669714-12.832183-71.10656-17.042286-106.130285-3.405531-28.326766-5.067337-54.485577-3.660068-76.340663 1.4336-22.285166 5.9392-37.870446 12.899474-47.0016 1.477486-1.939749 4.593371-4.242286 11.287406-5.731475 6.711589-1.492114 15.737417-1.851977 27.039451-0.9216 22.592366 1.860754 51.191223 8.589897 82.095543 17.642058 30.567863 8.955611 62.54592 19.924114 92.069303 30.052937l0.541257 0.187245z" fill="#753928" p-id="3324"></path><path d="M681.8816 151.417417C767.915154 120.363886 883.902171 78.49984 925.988571 103.862857c30.117303 18.151131 5.561783 125.524846-16.54784 222.210926-4.909349 21.46304-9.695817 42.399451-13.739154 61.717943 41.258423 64.953783 66.481006 132.104777 70.907612 186.136868C990.65856 867.585463 770.41664 901.12 521.315474 901.12c-249.101166 0-485.247269-34.950583-461.092571-327.191406 4.248137-51.434057 27.8528-115.284846 66.472228-177.821988C101.024914 290.064091 73.684114 122.054949 103.862857 103.862857c40.804937-24.593554 150.867383 16.471771 235.862309 48.186514 17.352411 6.474606 33.657417 12.557166 48.116297 17.6128C427.692617 154.793691 470.016 146.285714 514.132846 146.285714c42.37312 0 83.052251 7.805806 121.4464 21.542035 13.765486-4.666514 29.461943-10.330697 46.302354-16.410332z" fill="#FAD6CC" p-id="3325"></path><path d="M114.19648 127.268571c38.87104 14.587611 157.57312 69.277989 142.394514 82.680686-44.988709 39.725349-108.7488 143.915886-117.897508 160.770926-9.151634 16.852114-44.783909-230.265417-24.497006-243.454537z m804.278857 12.659566c-39.5264 12.715154-159.744 59.272046-145.22368 73.382766 43.040183 41.831863 99.714194 135.542491 108.049554 152.815908 8.33536 17.270491 56.805669-212.055771 37.174126-226.198674z" fill="#F5A4A9" p-id="3326"></path><path d="M347.261806 364.415269c22.700617-2.448823 40.287086-11.969097 39.286491-21.267018-1.00352-9.29792-20.219611-14.850926-42.920228-12.399177-22.700617 2.448823-40.290011 11.969097-39.286492 21.267017 1.00352 9.29792 20.219611 14.848 42.920229 12.399178z m320.971337 0c-22.700617-2.448823-40.290011-11.969097-39.286492-21.267018 1.00352-9.29792 20.219611-14.850926 42.917303-12.399177 22.700617 2.448823 40.290011 11.969097 39.286492 21.267017-1.00352 9.29792-20.216686 14.848-42.917303 12.399178z" fill="#DDB2A5" p-id="3327"></path><path d="M247.404251 571.298377c42.282423 0 76.557166-17.138834 76.557166-38.280046s-34.274743-38.27712-76.557166-38.27712c-42.279497 0-76.557166 17.135909-76.557165 38.27712s34.277669 38.280046 76.557165 38.280046z m548.153052 0c42.282423 0 76.557166-17.138834 76.557166-38.280046s-34.274743-38.27712-76.557166-38.27712c-42.282423 0-76.557166 17.135909-76.557166 38.27712s34.274743 38.280046 76.557166 38.280046z" fill="#FD8D94" p-id="3328"></path><path d="M362.241463 540.674926c43.127954 0 78.09024-34.962286 78.09024-78.09024 0-43.125029-34.962286-78.087314-78.09024-78.087315-43.125029 0-78.087314 34.962286-78.087314 78.087315 0 43.127954 34.962286 78.09024 78.087314 78.09024z m315.418331 0c43.125029 0 78.087314-34.962286 78.087315-78.09024 0-43.125029-34.962286-78.087314-78.087315-78.087315-43.127954 0-78.09024 34.962286-78.09024 78.087315 0 43.127954 34.962286 78.09024 78.09024 78.09024z" fill="#FFFFFF" p-id="3329"></path><path d="M382.148023 470.24128c21.986743 0 39.810194-17.823451 39.810194-39.810194s-17.823451-39.810194-39.810194-39.810195-39.810194 17.823451-39.810194 39.810195 17.823451 39.810194 39.810194 39.810194z m315.415406 0c21.986743 0 39.810194-17.823451 39.810194-39.810194s-17.823451-39.810194-39.810194-39.810195-39.810194 17.823451-39.810195 39.810195 17.823451 39.810194 39.810195 39.810194z" fill="#5E3424" p-id="3330"></path><path d="M651.629714 551.391817c0 60.249234-59.640686 71.963794-133.210697 71.963794-73.570011 0-133.207771-10.041051-133.207771-71.963794 0-55.225783 59.63776-71.963794 133.207771-71.963794s133.210697 11.71456 133.210697 71.963794z" fill="#F4989E" p-id="3331"></path><path d="M474.015451 577.421897c5.073189 0 9.186743-11.65312 9.186743-26.03008 0-14.374034-4.113554-26.027154-9.186743-26.027154-5.073189 0-9.186743 11.65312-9.186742 26.027154 0 14.37696 4.113554 26.03008 9.186742 26.03008z m88.807132 0c5.073189 0 9.186743-11.65312 9.186743-26.03008 0-14.374034-4.113554-26.027154-9.186743-26.027154-5.073189 0-9.186743 11.65312-9.186743 26.027154 0 14.37696 4.113554 26.03008 9.186743 26.03008z" fill="#A36266" p-id="3332"></path><path d="M541.107931 670.784366c13.04576-1.000594 23.595886-3.189029 28.926538-6.00064a8.777143 8.777143 0 1 1 8.192 15.52384c-8.76544 4.625554-22.478263 6.960274-35.77856 7.978423-13.68064 1.047406-28.461349 0.801646-40.292938-0.561738-23.630994-2.720914-53.051977-12.16512-71.975497-37.706605a8.777143 8.777143 0 1 1 14.104869-10.450652c14.82752 20.014811 38.610651 28.271177 59.877668 30.72 10.620343 1.220023 24.274651 1.465783 36.94592 0.497372zM915.871451 836.637257c-2.501486-14.903589-12.068571-30.231406-27.413942-45.328091-15.21664-14.967954-35.0208-28.625189-55.729006-40.240275-20.64384-11.579977-41.700206-20.860343-59.046766-27.21792-8.674743-3.177326-16.287451-5.576411-22.34368-7.156297-6.436571-1.682286-10.052754-2.1504-11.228891-2.1504-3.086629 0-4.461714 0.822126-5.3248 1.527223-1.18784 0.974263-2.513189 2.720914-3.978972 5.828023-1.047406 2.226469-1.708617 4.022857-2.49856 6.16448v0.002926c-0.49152 1.334126-1.032777 2.802834-1.746651 4.593371-0.751909 1.881234-1.813943 4.368091-3.279726 6.699886-1.389714 2.21184-4.05504 5.787063-8.671817 7.949166-3.87072 1.811017-7.545417 1.746651-9.924023 1.418971a23.745097 23.745097 0 0 1-5.98016-1.705691c-2.998857-1.263909-5.962606-3.086629-8.434834-4.719178-2.466377-1.629623-5.933349-4.11648-9.309623-6.538971l-0.005851-0.002926a451.408457 451.408457 0 0 0-6.971978-4.941531c-5.722697-3.93216-10.614491-6.843246-14.505691-8.285623a19.877303 19.877303 0 0 0-0.365714-0.131657c-0.842606 4.066743-1.471634 10.032274-1.793463 17.861486-0.649509 15.813486 0.032183 37.060023 1.559406 60.68224 3.033966 46.96064 9.29792 101.700754 14.169234 137.926948 2.340571 12.027611 13.645531 21.527406 39.099246 24.368274 24.953417 2.788206 57.987657-1.971931 90.834651-13.183268 32.785554-11.190857 63.803977-28.268251 85.170469-48.704366 21.395749-20.468297 31.451429-42.493074 27.721142-64.7168z m-259.490377-114.907428a0.447634 0.447634 0 0 1-0.117028 0.005851l0.023405-0.005851h0.093623z m3.780023-3.036892a0.836754 0.836754 0 0 0 0.058514-0.111177 0.397897 0.397897 0 0 0-0.058514 0.111177z m79.948069-33.405806c5.16096 0 11.843291 1.328274 18.619245 3.098332 7.156297 1.869531 15.678903 4.572891 25.017783 7.995977 18.67776 6.843246 41.167726 16.758491 63.294903 29.169371 22.059886 12.375771 44.242651 27.498789 61.934446 44.900938 17.557211 17.273417 31.814217 37.902629 35.749303 61.340525 5.945051 35.412846-11.12064 66.568777-36.352 90.702995-25.266469 24.169326-60.380891 43.116251-95.942949 55.252114-35.494766 12.115383-73.014126 17.978514-103.532251 14.572983-29.807177-3.329463-58.906331-16.714606-64.690469-48.502492l-0.06144-0.333531-0.043886-0.333532c-4.932754-36.61824-11.316663-92.288731-14.420845-140.317257-1.550629-23.949897-2.311314-46.40768-1.59744-63.771794 0.354011-8.619154 1.091291-16.539063 2.4576-22.961006 0.678766-3.200731 1.61792-6.521417 3.004708-9.555383 1.287314-2.820389 3.610331-6.834469 7.852617-9.678262 10.01472-6.711589 21.109029-4.411977 28.244846-1.767132 7.49568 2.779429 14.891886 7.472274 20.907154 11.606309 3.434789 2.358126 6.097189 4.286171 8.475795 6.009417l0.008777 0.008777c1.035703 0.748983 2.018743 1.459931 2.987154 2.1504 0.7168-1.819794 1.509669-3.730286 2.317166-5.441829 2.349349-4.988343 5.950903-11.117714 11.907657-15.99488 6.281509-5.146331 14.268709-8.15104 23.862126-8.15104zM122.862446 849.57184c1.123474-2.407863 4.01408-6.5536 9.426651-12.378697 5.207771-5.608594 12.027611-12.018834 20.099657-18.946926 16.126537-13.847406 36.550949-29.184 57.399589-43.511223 20.842789-14.324297 41.831863-27.451977 59.020434-36.931291 8.613303-4.748434 16.05632-8.464091 21.919452-10.945097 5.810469-2.4576 8.51968-3.013486 8.99072-3.11296 0.064366-0.011703 0.087771-0.017554 0.070217-0.017555 3.089554 0 4.46464 0.825051 5.3248 1.530149 1.18784 0.974263 2.513189 2.720914 3.978971 5.828023 1.047406 2.226469 1.708617 4.022857 2.49856 6.16448 0.49152 1.337051 1.032777 2.80576 1.749577 4.596297 0.748983 1.881234 1.813943 4.368091 3.2768 6.699886 1.389714 2.21184 4.05504 5.787063 8.671817 7.949165 3.87072 1.808091 7.545417 1.746651 9.924023 1.418972a23.771429 23.771429 0 0 0 5.983086-1.705692c2.995931-1.263909 5.95968-3.086629 8.434834-4.719177 2.466377-1.629623 5.933349-4.11648 9.306697-6.538971 2.533669-1.816869 5.014674-3.595703 6.977829-4.947383 5.722697-3.929234 10.614491-6.84032 14.505691-8.282697l0.365715-0.131657c0.842606 4.066743 1.47456 10.029349 1.796388 17.861485 0.649509 15.813486-0.035109 37.060023-1.559405 60.68224-3.036891 46.957714-9.29792 101.694903-14.17216 137.921098-1.18784 6.050377-5.14048 11.995429-13.192046 17.536731-8.306103 5.716846-20.228389 10.415543-35.096869 13.513874-29.707703 6.190811-68.031634 5.342354-103.921371-3.036891-36.144274-8.43776-67.4816-23.955749-85.325532-45.029669-8.739109-10.324846-14.189714-21.890194-15.711085-34.851108-1.521371-13.0048 0.79872-28.440869 9.25696-46.615406z m260.77184-118.649417a0.441783 0.441783 0 0 1-0.117029-0.005852c0.08192-0.002926 0.119954 0.002926 0.117029 0.005852z m-3.897052-3.042743a0.748983 0.748983 0 0 1-0.055588-0.111177 0.702171 0.702171 0 0 1 0.055588 0.111177z m-79.948068-33.408731c-6.462903 0-14.034651 2.72384-20.462446 5.444754-7.14752 3.025189-15.558949 7.258697-24.646217 12.270446-18.218423 10.046903-40.035474 23.709989-61.463406 38.435108-21.42208 14.722194-42.738834 30.69952-59.889371 45.427566-8.566491 7.358171-16.266971 14.549577-22.478263 21.234834-6.003566 6.465829-11.421989 13.306149-14.511543 19.944594-10.298514 22.127177-14.055131 43.010926-11.790629 62.3616 2.27328 19.39456 10.476983 36.223269 22.440229 50.354469 23.569554 27.835246 61.843749 45.471451 101.004434 54.614309 39.415223 9.204297 82.08384 10.368731 116.539977 3.189028 17.214903-3.586926 33.171749-9.4208 45.717212-18.057508 12.680046-8.727406 22.563109-20.860343 25.444937-36.685532l0.058514-0.333531 0.046812-0.333532c4.929829-36.61824 11.316663-92.288731 14.420845-140.317257 1.547703-23.952823 2.308389-46.40768 1.594515-63.771794-0.354011-8.619154-1.088366-16.539063-2.454675-22.961006-0.681691-3.200731-1.620846-6.521417-3.004708-9.555383-1.29024-2.820389-3.610331-6.834469-7.852617-9.678263-10.017646-6.714514-21.109029-4.411977-28.244846-1.767131-7.498606 2.779429-14.891886 7.469349-20.91008 11.603383a393.046309 393.046309 0 0 0-8.475794 6.012343l-0.002926 0.002925c-1.038629 0.751909-2.021669 1.465783-2.993006 2.156252a93.617006 93.617006 0 0 0-2.317165-5.444754c-2.349349-4.985417-5.950903-11.114789-11.907658-15.99488-6.281509-5.143406-14.268709-8.15104-23.862125-8.15104z" fill="#5E3424" p-id="3333"></path><path d="M917.776091 834.998857c-11.869623-70.825691-151.938194-124.050286-175.314651-124.050286-15.632091 0-20.322011 12.650789-23.786057 22.004298-1.717394 4.634331-3.13344 8.455314-5.433052 9.534902-2.677029 1.252206-9.128229-3.402606-16.904777-9.019977-12.384549-8.940983-28.130743-20.307383-37.358445-14.107794-15.026469 10.090789-0.69632 147.178057 8.347062 214.457783 14.7456 81.2032 268.290926 7.65952 250.44992-98.818926z m-801.949988 8.385097C131.815131 809.270126 272.319634 716.8 296.395337 716.8c16.100206 0 20.93056 12.911177 24.499932 22.454857 1.767131 4.727954 3.227063 8.627931 5.593965 9.728 2.756023 1.278537 9.40032-3.472823 17.413852-9.204297 12.753189-9.122377 28.970423-20.722834 38.476068-14.39744 15.477029 10.298514 0.7168 150.185691-8.598674 218.840503-15.187383 82.86208-329.186743 51.112229-257.954377-100.837669z" fill="#FAD6CC" p-id="3334"></path><path d="M811.885714 734.354286c-13.900069-12.22656-70.977829-27.106743-78.242377-23.698286-8.475794 3.976046-10.541349 10.582309-12.454766 16.697051-1.47456 4.7104-6.38976 9.452983-10.538422 12.156343-4.356389 2.837943-12.381623-4.695771-23.107292-12.156343-9.806994-6.822766-17.481143-14.941623-26.934126-12.299702-7.697554 2.1504-9.40032 35.667383-8.174445 61.723794 0.324754 6.88128 0.623177 13.233006 0.719725 18.344228 1.389714 16.30208 172.631771-49.898057 158.731703-60.767085z m-570.514285 8.777143c13.900069-12.22656 54.444617-35.108571 68.420754-22.966858 6.468754 5.620297 8.902949 11.395657 11.062126 16.521509 2.015817 4.786469 3.794651 9.008274 8.399725 12.010057 1.35168 0.88064 12.568869-8.344137 23.294537-15.804708 9.806994-6.822766 16.091429-11.629714 26.74688-8.651338 10.652526 2.975451 12.507429 23.186286 10.544275 64.912823-0.324754 6.88128-0.623177 13.235931-0.719726 18.344229-1.389714 16.305006-161.645714-53.496686-147.748571-64.365714z" fill="#F5A4A9" p-id="3335"></path></svg>