<?xml version="1.0" standalone="no"?><!DOCTYPE svg PUBLIC "-//W3C//DTD SVG 1.1//EN" "http://www.w3.org/Graphics/SVG/1.1/DTD/svg11.dtd"><svg t="1744968617461" class="icon" viewBox="0 0 1024 1024" version="1.1" xmlns="http://www.w3.org/2000/svg" p-id="3864" xmlns:xlink="http://www.w3.org/1999/xlink" width="32" height="32"><path d="M255.473371 889.382034s156.765623-7.832137 260.953235-8.78592c115.758811-1.059109 300.160731 8.78592 300.160731 8.78592l191.321234 21.635657s-298.896823 17.712274-491.481965 17.577692C327.533714 928.463726 52.662857 911.017691 52.662857 911.017691l202.810514-21.635657z" fill="#000000" opacity=".5" p-id="3865"></path><path d="M281.801874 125.270309C342.791314 81.785417 421.25312 64.365714 520.777143 64.365714c153.523931 0 292.975177 82.382263 367.504823 266.830995 44.985783 64.459337 58.596206 151.4496 46.869943 234.534034-11.819886 83.748571-49.68448 165.814857-110.381349 219.311543-181.148526 159.659154-414.208 107.326903-517.298469 57.341074-60.930926-29.543863-194.814537-103.447406-211.090285-256.155063-8.361691-78.41792 0.234057-160.29696 54.734263-253.855451C179.755886 236.242651 221.052343 168.585509 281.8048 125.270309z m16.983772 23.821165C244.893989 187.517806 206.262857 248.931474 178.66752 342.372937l-0.506149 1.717394-0.906971 1.544778c-51.662263 87.98208-59.631909 163.857554-51.785143 237.491931 14.455954 135.59808 133.79584 203.3664 194.767726 232.930743 98.397623 47.712549 316.94848 95.319771 485.188754-52.964206 54.362697-47.914423 89.684846-123.011657 100.755749-201.450057 11.076754-78.488137-2.431269-158.041234-42.773943-214.955154l-1.000594-1.410195-0.643658-1.606217C791.663177 168.7552 662.308571 93.622857 520.777143 93.622857c-96.50176 0-167.979886 16.95744-221.991497 55.471543z" fill="#000000" p-id="3866"></path><path d="M808.676206 767.56992c112.584411-99.181714 143.225417-307.419429 58.947291-426.261943C796.941166 165.030766 665.254766 87.771429 520.68352 87.771429c-191.806903 0-293.43744 67.241691-348.481829 253.536548-52.335177 89.090926-60.506697 166.464366-52.554605 241.032046 15.035246 140.98432 138.924617 210.265234 198.565303 239.168366 98.576091 47.776914 319.523109 96.648046 490.463817-53.938469z" fill="#51423E" p-id="3867"></path><path d="M327.876023 472.707657c36.706011 8.794697 55.456914 6.632594 69.643703-2.934491 23.215543-12.721006 52.10112-49.933166 111.55456-49.933166 64.485669 0 90.934126 35.254857 110.278948 49.933166 6.834469 5.187291 29.663817 9.242331 50.29888 7.337691 47.721326-4.4032 108.336274-98.342034 181.850697-24.950491 27.72992 27.683109 43.408823 162.298149-28.373577 267.14112C745.747017 832.324754 579.370423 845.531429 518.755474 845.531429c-120.006949 0-228.281783-38.163017-274.712868-80.729235-46.431086-42.566217-128.023406-174.316983-91.569006-264.203703 46.431086-114.489051 150.89664-33.762743 175.402423-27.890834z" fill="#D7A37F" p-id="3868"></path><path d="M273.554286 166.765714c-29.482423 0.538331-89.450789 5.20192-121.215269 37.718309-39.707794 40.644023-113.488457 136.077897-125.182537 209.024731-11.69408 72.94976 100.855223 197.175589 140.065646 197.169737 39.213349-0.008777 72.107154-93.186926 68.953234-126.469851-0.664137-6.974903-2.267429-17.372891-4.192549-29.851063-7.261623-47.08352-19.08736-123.76064-2.056777-157.581897 13.993691-24.576 18.712869-51.931429 22.785463-75.533166C257.006446 196.350537 260.578743 175.63648 273.554286 166.765714zM751.908571 180.095269c29.459017 1.158583 96.127269 11.609234 127.107658 44.119771 38.72768 40.641097 107.242057 140.911177 117.198262 212.573623 9.956206 71.65952-102.54336 185.586834-141.74208 184.738377-39.19872-0.848457-69.868983-92.768549-65.919268-125.282011 0.825051-6.811063 2.677029-16.95744 4.897646-29.134263 8.379246-45.933714 22.027703-120.738377 5.807542-154.211475-12.296777-22.349531-16.890149-49.169554-20.956891-72.92928-5.043931-29.453166-9.280366-54.198857-26.392869-59.874742z" fill="#51423E" p-id="3869"></path><path d="M258.159177 182.950766a14.628571 14.628571 0 0 0-0.497371-29.251292c-29.268846 0.497371-85.267017 3.978971-121.586835 40.623543-20.512183 20.696503-49.4592 55.02976-74.819291 93.391726-25.146514 38.040137-47.891017 81.706423-54.21056 120.79104-3.557669 21.99552 2.510263 46.191177 12.560091 68.909348 10.175634 22.99904 25.146514 46.091703 41.521738 66.571703 16.384 20.491703 34.546834 38.838857 51.44576 52.218149 8.440686 6.682331 16.831634 12.337737 24.748617 16.389851 7.636114 3.908754 16.126537 7.001234 24.41216 7.007086 15.681829 0.014629 28.689554-9.069714 38.429257-19.464777 9.956206-10.62912 18.408594-24.599406 25.131886-38.920777a240.830171 240.830171 0 0 0 15.588205-44.029075c3.385051-13.818149 5.277989-27.580709 4.242286-38.206902-0.760686-7.867246-2.90816-19.88608-5.313097-33.356069l-1.006446-5.640777c-2.8672-16.141166-6.050377-34.634606-8.300251-53.090012-2.255726-18.537326-3.496229-36.492434-2.650697-51.6096 0.883566-15.734491 3.914606-25.664366 7.7824-30.582491a14.628571 14.628571 0 0 0-23.001966-18.080914c-9.692891 12.32896-13.036983 30.014903-13.990766 47.027931-0.988891 17.630354 0.476891 37.548617 2.820389 56.782263 2.352274 19.315566 5.661257 38.487771 8.537234 54.669897l0.977189 5.503269c2.481006 13.908846 4.388571 24.599406 5.029302 31.205668 0.561737 5.778286-0.45056 15.79008-3.54304 28.414537a211.733943 211.733943 0 0 1-13.651382 38.555063c-5.977234 12.729783-12.878994 23.750949-20.000183 31.35488-7.340617 7.832137-13.136457 10.213669-17.056915 10.210743-1.518446 0-5.125851-0.734354-11.108937-3.794651-5.705143-2.919863-12.457691-7.378651-19.912411-13.282743-14.891886-11.790629-31.521646-28.493531-46.75584-47.548709-15.242971-19.061029-28.710034-40.006217-37.618834-60.140983-9.03168-20.415634-12.688823-38.455589-10.433098-52.402468 5.30432-32.800183 25.213806-72.23296 49.737143-109.325166 24.303909-36.770377 52.036754-69.605669 71.18848-88.930011 27.147703-27.387611 71.609783-31.463131 101.305783-31.96928z m506.610834 17.01888a14.628571 14.628571 0 1 1 1.10592-29.236663c15.409737 0.585143 37.513509 2.656549 60.050286 8.891246 22.399269 6.193737 46.434011 16.822857 64.424229 35.351405 20.082103 20.678949 48.347429 55.471543 72.902948 94.070492 24.339017 38.253714 46.205806 82.04288 51.603749 120.390217 3.039817 21.597623-3.300206 44.89216-13.499246 66.56-10.318994 21.922377-25.301577 43.695543-41.627063 62.879451-16.331337 19.195611-34.394697 36.258377-51.22048 48.610743-8.402651 6.170331-16.761417 11.360549-24.654994 15.035246-7.647817 3.560594-16.038766 6.258103-24.160549 6.091337-15.54432-0.315977-28.312137-9.382766-37.858742-19.786606-9.730926-10.602789-17.870263-24.444343-24.265875-38.581394a230.800823 230.800823 0 0 1-14.567131-43.367863c-3.057371-13.566537-4.643109-27.118446-3.33824-37.572023 0.956709-7.682926 3.396754-19.385783 6.12352-32.452023l1.138103-5.476937c3.25632-15.670126 6.878354-33.610606 9.56416-51.52768 2.700434-18.004846 4.36224-35.4304 3.879497-50.117485-0.500297-15.29856-3.279726-24.871497-6.928092-29.617006a14.628571 14.628571 0 1 1 23.197989-17.829303c9.493943 12.352366 12.425509 29.833509 12.972617 46.486674 0.567589 17.270491-1.383863 36.703086-4.186697 55.413029-2.817463 18.794789-6.588709 37.428663-9.85088 53.139748l-1.111771 5.336503c-2.814537 13.513874-4.970789 23.865051-5.766583 30.260663-0.684617 5.497417 0.064366 15.181531 2.84672 27.519269a201.570011 201.570011 0 0 0 12.680045 37.741714c5.655406 12.495726 12.264594 23.341349 19.16928 30.86336 7.089006 7.726811 12.84096 10.234149 16.898926 10.316069 1.676434 0.035109 5.330651-0.623177 11.220114-3.364572 5.643703-2.627291 12.317257-6.685257 19.684206-12.094903 14.719269-10.807589 31.153006-26.237806 46.252617-43.985188 15.108389-17.753234 28.48768-37.367223 37.43744-56.38144 9.069714-19.268754 12.905326-36.463177 10.99776-50.020937-4.496823-31.957577-23.543223-71.402057-47.314651-108.766355-23.552-37.019063-50.597303-70.22592-69.207772-89.392274-12.96384-13.350034-31.466057-22.068663-51.232182-27.533897-19.625691-5.4272-39.309897-7.323063-53.359178-7.852617z" fill="#000000" p-id="3870"></path><path d="M681.188206 816.514194c-20.535589-9.19552-56.902217-5.705143-62.224092 22.887863-9.23648 49.614263 18.671909 127.24224 132.455863 119.723154C862.47424 951.78752 866.011429 856.397531 866.011429 839.402057c0-15.485806-5.907017-35.213897-40.40704-22.887863 0-33.862217-49.58208-89.3952-85.316755-18.771383-13.759634-11.541943-40.371931-19.259977-59.099428 18.771383zM252.582766 927.746926c-20.594103 9.710446-61.908114 18.467109-62.399635-24.1664-0.617326-53.291886 24.713509-154.299246 132.83328-126.414263 108.122697 27.884983 119.860663 110.922606 114.919132 126.414263-4.944457 15.491657-15.447771 37.179977-50.044343 24.1664-8.443611 20.655543-34.353737 52.302994-70.433646 13.633828-13.800594 12.188526-46.091703 26.5216-64.874788-13.633828z" fill="#D7A37F" p-id="3871"></path><path d="M788.2752 769.55648c-3.671771-0.763611-7.261623-0.400823-10.857326 1.152731-6.28736 2.712137-14.9504 10.084937-23.908937 27.703589l-8.320731 16.357669-14.093166-11.758446c-5.646629-4.716251-12.767817-7.580526-19.125394-6.764252-5.424274 0.693394-14.350629 4.622629-23.200915 22.498743l-6.231771 12.589349-12.832183-5.716846c-8.230034-3.66592-20.401006-4.929829-30.65856-2.200137-9.754331 2.598034-15.652571 7.978423-17.247086 16.501029-4.409051 23.557851 0.169691 53.701486 18.987886 76.741485 18.335451 22.44608 52.118674 40.459703 110.934309 36.591909 55.866514-3.671771 82.844526-28.812434 96.656823-53.830217 14.391589-26.073966 15.33952-53.727817 15.33952-62.194835 0-7.674149-1.693989-11.679451-3.21536-13.072091-0.362789-0.333531-4.564114-4.15744-21.568366 1.88416l-19.526217 6.939794v-20.722834c0-5.974309-2.325943-14.137051-7.077303-22.182766-4.719177-7.993051-11.003611-14.464731-17.410926-17.975588a126.420114 126.420114 0 0 1-6.644297-2.542446z m26.624-19.420891c9.373989 6.585783 17.053989 15.632091 22.624549 25.064594a85.577143 85.577143 0 0 1 8.329508 18.929371c13.704046-2.077257 25.512229 0.3072 34.403474 8.446537 11.176229 10.228297 12.71808 25.433234 12.71808 34.65216 0 10.07616-0.988891 43.730651-18.982034 76.331886-18.578286 33.654491-54.429989 64.55296-120.352183 68.888869-65.969006 4.335909-109.878126-15.895406-135.510308-47.279543-25.146514-30.787291-30.810697-70.059154-25.090926-100.629943 4.242286-22.674286 21.205577-34.792594 38.478994-39.391817 12.147566-3.232914 25.47712-3.156846 37.33504-0.45056 10.851474-16.524434 24.385829-25.544411 39.391817-27.469532 9.979611-1.281463 19.236571 0.775314 27.092115 4.268618 8.9088-13.431954 19.08736-22.729874 30.488868-27.650926 1.272686-0.550034 2.545371-1.035703 3.815132-1.465783 2.738469-7.059749 6.003566-14.511543 9.476388-20.784274 2.902309-5.24288 6.380983-10.468206 10.333623-13.730377 2.009966-1.653029 4.774766-3.335314 8.174446-3.630812 3.759543-0.32768 7.068526 1.135177 9.575863 3.557669 3.899977 3.771246 5.930423 8.97024 7.039268 13.894217 1.138103 5.041006 1.49504 10.634971 1.4336 16.062171a129.492114 129.492114 0 0 1-0.775314 12.387475z m-14.046354-7.349395c0.105326-1.734949 0.175543-3.478674 0.193097-5.198994 0.055589-4.783543-0.277943-9.145783-1.073737-12.682971-0.53248-2.3552-1.196617-4.022857-1.860755-5.163886-1.650103 1.61792-3.7888 4.593371-6.196662 8.940983a133.681737 133.681737 0 0 0-5.46816 11.266925c4.99712 0.2048 9.8304 1.214171 14.406217 2.837943zM218.533303 812.938971c-19.233646 27.571931-25.746286 66.217691-25.424457 93.625783 0.105326 9.303771 2.404937 13.765486 4.236434 15.918812 1.796389 2.106514 4.590446 3.698103 9.169189 4.376868 10.032274 1.486263 23.835794-2.208914 34.023131-6.998308l13.247634-6.22592 6.217143 13.253485c4.324206 9.213074 8.902949 14.195566 12.75904 16.884298a19.090286 19.090286 0 0 0 11.430766 3.548891c8.496274-0.06144 17.83808-5.002971 23.885531-10.327771l10.6496-9.376915 9.698743 10.359955c8.668891 9.265737 15.649646 13.145234 20.667246 14.552502 4.719177 1.325349 8.654263 0.748983 12.317257-0.968411 8.370469-3.923383 15.857371-14.227749 19.8656-24.011337l5.38624-13.130606 13.285669 4.985417c15.772526 5.912869 22.463634 2.8672 25.597074 0.500297 4.394423-3.31776 7.507383-9.549531 10.093714-17.627428l0.002926-0.014629c0.035109-0.160914 0.354011-1.653029 0.304274-4.830354-0.046811-3.159771-0.453486-7.308434-1.442377-12.200229-1.974857-9.780663-6.179109-22.039406-13.917623-34.798445-15.283931-25.196251-44.836571-53.157303-100.401737-67.443566-27.346651-7.033417-48.183589-5.634926-64.093623 0.125806-15.886629 5.751954-28.13952 16.319634-37.557394 29.821805z m27.598263-57.332297c22.539703-8.159817 49.535269-9.128229 81.340708-0.950857 62.741943 16.135314 98.766263 48.68096 118.12864 80.60928 9.58464 15.801783 14.973806 31.261257 17.580617 44.172434 2.466377 12.20608 2.811611 23.98208 0.321829 31.755703-2.820389 8.823954-8.156891 22.870309-20.327863 32.059977-10.757851 8.124709-24.441417 10.822217-40.813714 7.314286-6.252251 10.453577-15.690606 21.468891-28.534492 27.487086-9.514423 4.458789-20.646766 6.009417-32.636342 2.647771-8.411429-2.361051-16.659017-6.971977-24.745692-13.777188-8.753737 5.24288-19.900709 9.567086-32.042423 9.654857a48.341577 48.341577 0 0 1-28.367725-8.800549c-5.889463-4.104777-11.146971-9.572937-15.746195-16.40448-11.337143 3.739063-25.12896 6.342949-38.060617 4.426606-9.60512-1.421897-19.61984-5.500343-27.15648-14.350629-7.501531-8.8064-11.0592-20.591177-11.220114-34.543908-0.356937-30.731703 6.653074-76.252891 30.684891-110.706103 12.214857-17.513326 29.034789-32.425691 51.594972-40.594286z" fill="#000000" p-id="3872"></path><path d="M447.268571 371.963611c19.075657-8.794697 24.672549-37.33504 12.498652-63.748388-12.173897-26.413349-37.510583-40.699611-56.58624-31.90784-19.078583 8.791771-24.672549 37.33504-12.498652 63.748388 12.173897 26.413349 37.507657 40.699611 56.58624 31.90784z m148.35712-1.819794c-18.35008-10.21952-21.755611-39.102171-7.606857-64.514926 14.15168-25.409829 40.500663-37.721234 58.853669-27.501714 18.35008 10.21952 21.755611 39.102171 7.603931 64.514926-14.148754 25.409829-40.497737 37.72416-58.850743 27.501714z" fill="#D7A37F" p-id="3873"></path><path d="M417.514057 419.345554c-3.680549 20.681874-31.17056 33.081051-61.396114 27.700663-30.222629-5.383314-51.741257-26.512823-48.057783-47.191771 3.683474-20.681874 15.231269-35.92192 61.396114-27.700663 30.225554 5.383314 51.741257 26.512823 48.057783 47.191771zM590.994286 481.165897c0 24.807131-37.288229 60.407223-76.068572 60.407223s-76.068571-35.600091-76.068571-60.407223 37.288229-44.918491 76.068571-44.918491 76.068571 20.11136 76.068572 44.918491z m-123.634835 117.683932c38.774491-6.723291 67.654217-2.829166 100.460252 3.033965 18.235977 3.259246 41.211611 3.311909 61.609691-2.287908 20.25472-5.561783 40.333897-17.478217 47.961235-39.947703a11.705783 11.705783 0 0 0-22.165212-7.524937c-4.07552 12.007131-15.377554 20.339566-31.992686 24.900754-16.471771 4.523154-35.86048 4.578743-51.296548 1.819794-38.019657-6.796434-73.467611-11.471726-124.316526 0.108252-44.254354 10.079086-65.957303-15.614537-71.156297-27.694812a11.702857 11.702857 0 1 0-21.498149 9.25696c6.375131 14.809966 24.90368 36.796709 56.574538 42.677395 0.734354 7.337691 2.551223 17.618651 5.91872 27.136 1.851977 5.234103 4.265691 10.500389 7.410834 14.97088 3.130514 4.447086 7.293806 8.546011 12.77952 10.673005 3.314834 1.287314 6.822766 1.45408 10.184411 0.242835 3.200731-1.152731 5.623223-3.320686 7.422537-5.573486 3.4816-4.365166 5.769509-10.515017 7.369875-16.52736 2.99008-11.246446 4.338834-25.076297 4.733805-35.263634z m-40.813714 6.641371c0.825051 5.953829 2.33472 13.262263 4.704549 19.956297 1.582811 4.476343 3.46112 8.414354 5.585188 11.433692 2.141623 3.045669 4.227657 4.725029 6.105966 5.453531l0.06144 0.023406a4.7104 4.7104 0 0 0 0.8192-0.842606c1.541851-1.930971 3.203657-5.67296 4.666514-11.1616 2.036297-7.656594 3.25632-17.036434 3.87072-25.339611-4.493897 0.643657-9.868434 1.053257-15.38048 0.748982a168.974629 168.974629 0 0 0-10.433097-0.272091z m252.992366-158.06464c-30.225554 5.380389-57.71264-7.018789-61.396114-27.700663-3.683474-20.678949 17.832229-41.808457 48.057782-47.191771 46.211657-8.230034 57.71264 7.018789 61.396115 27.700663 3.683474 20.678949-17.832229 41.808457-48.057783 47.191771z" fill="#000000" p-id="3874"></path><path d="M440.32 642.194286c-10.582309-4.107703-15.120091-27.732846-15.898331-37.668572l-0.160915-1.448228c1.603291-0.178469 6.57408-0.435931 13.627977-0.043886 7.053897 0.392046 13.838629-1.04448 16.351818-1.813943-0.345234 14.461806-3.33824 45.082331-13.920549 40.974629z" fill="#FFFFFF" p-id="3875"></path><path d="M495.57504 462.856777c0.816274 2.481006-3.408457 6.10304-9.438354 8.086674-6.026971 1.983634-11.577051 1.579886-12.396252-0.90112-0.816274-2.483931 3.408457-6.10304 9.438355-8.0896 6.029897-1.983634 11.579977-1.579886 12.396251 0.904046z" fill="#FFFFFF" opacity=".6" p-id="3876"></path><path d="M799.957577 716.934583c5.924571 5.731474 5.041006 19.43552 3.150994 27.659703l-0.24576 1.211245c-1.088366-0.222354-4.400274-1.141029-8.917577-3.063222-4.517303-1.919269-9.29792-2.296686-11.126491-2.246949 3.715657-11.635566 11.211337-29.292251 17.138834-23.560777z" fill="#FFFFFF" p-id="3877"></path><path d="M368.64 421.302857a14.628571 14.628571 0 1 0-0.002926-29.260068A14.628571 14.628571 0 0 0 368.64 421.302857z m283.794286 0a14.628571 14.628571 0 1 0-0.002926-29.260068A14.628571 14.628571 0 0 0 652.434286 421.302857z" fill="#FFFFFF" p-id="3878"></path></svg>